<?xml version="1.0" encoding="UTF-8"?>
<svg width="407px" height="311px" viewBox="0 0 407 311" version="1.1" xmlns="http://www.w3.org/2000/svg" xmlns:xlink="http://www.w3.org/1999/xlink">
    <title>Artboard</title>
    <g id="Artboard" stroke="none" stroke-width="1" fill="none" fill-rule="evenodd">
        <g id="file" transform="translate(10.000000, 12.000000)" fill-rule="nonzero">
            <path d="M118.824096,93.7606435 C119.163134,94.9889422 119.956665,95.2710334 121.21814,95.3503981 C126.37666,95.6749311 131.214735,94.8850955 135.282189,91.49245 C136.724462,90.2894358 137.945788,88.7670559 139.062047,87.2400607 C141.101621,84.4500512 143.136577,83.5850145 146.510171,84.4347499 C161.891754,88.3091278 177.276197,92.172469 192.638809,96.1207437 C193.96623,96.4618569 195.292747,97.2102542 196.360701,98.085349 C200.649755,101.599926 204.808625,105.272707 209.074268,108.816457 C211.014798,110.428561 211.786623,112.391285 211.311604,114.896093 C211.604545,115.135291 211.897436,115.374489 212.190328,115.613687 C212.330148,115.109229 212.353234,114.528241 212.626703,114.11145 C220.611753,101.943323 228.5959,89.7743421 236.665114,77.662076 C237.531291,76.361988 236.848899,75.6720107 236.255186,74.7877853 C222.235553,53.9083149 208.223398,33.0238529 194.180704,12.1598843 C192.555825,9.74567847 191.641694,7.31501817 193.134305,4.52716543 C194.204442,2.52834598 195.813537,1.28193695 198.145902,1.1350969 C198.96538,1.08347479 199.787292,1.04409305 200.608075,1.0438925 C219.587587,1.03882563 238.567301,1.07828217 257.546512,1.00013448 C260.528823,0.988031219 262.914411,1.79196387 265.160128,3.80267312 C269.746516,7.90910023 274.530138,11.7953679 279.387636,15.9035261 C281.091634,12.4207549 282.820275,9.05183846 284.398455,5.61389156 C285.844242,2.46435734 288.131965,1.00013448 291.648316,1.01145946 C311.17577,1.07223719 330.703575,1.05442775 350.231179,1.02264651 C352.606579,1.01878379 354.536269,1.71264928 356.355346,3.31750422 C360.820783,7.25709957 365.446216,11.0151393 369.997674,14.8576612 C373.757381,18.0318278 374.199127,20.9659181 371.463234,25.060531 C357.490877,45.9724595 343.52108,66.8862193 329.476202,87.7494605 C328.529876,89.1551258 328.681391,89.9979129 329.550127,91.2893221 C345.682833,115.271947 361.748691,139.299472 377.890179,163.276177 C379.541582,165.729212 379.972537,168.223811 378.823607,170.820526 C377.572646,173.648036 374.867718,174.341399 372.069643,174.598156 C370.942243,174.701651 369.797378,174.615213 368.406546,174.615213 C377.695253,181.531943 383.726925,190.349465 385.71182,201.468366 C386.614885,206.526946 386.217303,211.814388 386.453735,216.995979 C386.737291,223.21202 386.037233,229.243395 383.420383,234.976877 C383.199561,235.460641 383.429567,236.270544 383.678495,236.8269 C384.708683,239.129634 385.757541,241.429407 386.930912,243.661305 C388.262272,246.193705 388.26147,248.753346 387.416271,251.386633 C386.917562,252.940267 387.162375,254.372797 387.612,255.940227 C388,257.296001 387.889986,258.887712 387.650092,260.31648 C385.643415,272.267909 377.879539,280.72528 366.33031,283.280756 C357.81639,285.164643 349.931814,283.263549 342.670109,278.564068 C341.869375,278.045839 341.098654,277.481255 340.332701,276.951136 C330.00437,284.356747 315.275544,284.468419 303.409886,274.886697 C296.781441,280.550446 288.775011,282.134833 280.361113,282.294315 C274.202066,282.411105 268.039004,282.349399 261.878,282.318797 C254.411732,282.281773 247.175021,281.284847 240.874447,276.9403 C229.652888,284.896698 218.221147,285.961251 206.967218,278.868383 C204.964657,279.45178 203.42773,279.940762 201.869023,280.346014 C196.97391,281.618811 192.03787,282.455101 186.933503,282.366305 C181.629968,282.274047 176.724717,280.967036 172.071355,278.487061 C171.54384,278.205973 170.600099,278.091892 170.146534,278.375338 C159.485765,285.039324 148.839851,284.414841 138.240586,278.326977 C137.032836,277.633362 136.310069,277.663563 135.2047,278.426308 C129.835571,282.13097 123.820611,284.096027 117.321698,283.860892 C112.470248,283.685357 107.815682,282.305653 103.539475,279.82628 C102.915926,279.464773 101.862552,279.379288 101.18957,279.637901 C91.7457846,283.267563 82.3620483,283.614721 72.9561043,279.484238 C72.3078642,279.199588 71.2616913,279.389422 70.5654976,279.713052 C65.1069353,282.25102 59.4527697,283.721879 53.3728928,283.622647 C40.313236,283.409486 29.5473253,274.516813 27.1477852,261.666585 C25.6676709,253.740136 25.7116846,245.668151 26.7513082,237.775565 C28.3092624,225.948049 30.7260667,214.233461 32.7808975,202.471413 C33.7642112,196.842732 34.7550277,191.215404 35.8789402,185.30729 C38.6621596,185.108828 41.3088956,185.1905 43.9486053,185.441739 C43.4043026,188.486549 42.8510664,191.359033 42.3325594,194.237689 C40.0722129,206.786963 37.833924,219.340201 35.5631635,231.887619 C34.3434441,238.627308 33.4674054,245.36223 34.4872802,252.235214 C36.4529789,265.482217 46.9131757,274.762633 60.2864759,274.883336 C65.9004669,274.933955 71.2137377,273.538699 76.2738402,271.10844 C76.9190691,270.798556 77.8947292,270.555896 78.4726324,270.819125 C87.4541951,274.908871 96.4423577,274.477432 105.510518,271.145464 C106.270901,270.866082 107.4113,270.934811 108.123829,271.313825 C118.359991,276.758694 128.33734,276.104962 138.017881,270.028637 C139.43338,269.140173 140.264727,269.210607 141.620755,269.99357 C151.273644,275.566917 161.060532,276.112136 170.823732,270.29312 C172.137728,269.510007 173.014143,269.447799 174.291527,270.250026 C175.542362,271.035547 176.998964,271.523274 178.407211,272.023794 C185.566183,274.568636 192.774464,273.882697 199.97597,272.235049 C202.207258,271.724596 204.408434,271.082554 207.189345,270.352066 C217.815736,277.225752 228.778179,276.004327 239.50384,268.436474 C244.45313,272.080032 250.238836,273.261023 256.088329,273.566392 C263.329709,273.944453 270.606319,273.697279 277.86687,273.626292 C279.908125,273.606275 281.956808,273.331408 283.98376,273.044199 C289.696695,272.234698 294.893356,270.150845 299.358743,266.502321 C310.798665,274.995159 322.52927,276.295448 334.789548,268.460454 C335.051574,268.649786 335.324993,268.851459 335.602477,269.047262 C343.963528,274.948102 353.056656,277.102792 362.866856,273.560171 C373.06997,269.875676 378.616887,262.199011 380.200236,251.591817 C380.371474,250.44479 380.368011,249.072912 379.894999,248.063043 C377.873818,243.747894 375.697008,239.502327 373.455507,235.296042 C372.938079,234.325052 372.832736,233.688728 373.435131,232.729428 C378.032961,225.407094 379.991056,217.445829 378.679068,208.854211 C376.268688,193.069792 367.963997,181.581006 352.880099,175.935468 C337.634749,170.229604 322.051991,171.152158 306.535632,175.287255 C305.059432,175.680668 303.455606,177.021592 302.049819,174.971301 C301.831807,174.65329 301.023545,174.674862 300.483483,174.651986 C290.38516,174.223907 280.289496,173.645076 270.186355,173.442751 C258.691377,173.212633 247.200365,173.505962 235.765512,174.9561 C234.110496,175.16595 232.379447,175.124612 230.723175,174.903274 C227.427346,174.463005 224.152796,173.321346 220.880806,173.363085 C214.876987,173.439741 208.711867,173.721029 204.76958,179.378557 C203.095794,178.331764 201.513398,177.0987 199.740869,176.273948 C189.932702,171.71027 180.386811,172.766344 171.189369,178.021378 C169.631038,178.911749 168.673797,179.062603 167.100059,177.962883 C157.44865,171.218379 144.112212,171.180803 134.321133,177.728 C132.862424,178.703504 131.497363,179.818877 130.09431,180.865619 C124.00673,176.379149 117.351961,174.376516 109.831266,174.487637 C102.192632,174.600464 95.6683738,177.409236 89.6978542,181.452578 C88.5783836,180.742558 87.6664608,180.164179 86.7395326,179.393156 C86.7343384,177.525775 86.7441245,175.850986 86.898826,174.17981 C90.0521997,172.700022 93.0606584,171.216622 96.2247219,169.656517 C93.0623395,168.026126 89.9063564,166.399047 86.7362703,164.592921 C86.6800106,163.756831 86.6378536,163.099763 86.5959226,162.446032 C85.7457301,162.309125 85.0932237,162.204074 84.3903302,162.090897 C84.3903302,157.082034 84.3903302,152.192468 84.3903302,147.411013 C85.2874222,147.102258 86.0281069,146.847357 86.8951624,146.652859 C100.20337,156.61505 115.187472,161.393871 131.626544,162.448365 C132.489584,162.520205 133.241059,162.497754 134.180384,162.458749 C135.75352,162.452679 137.138806,162.463139 138.660174,162.551308 C139.941724,162.536057 141.087116,162.443072 142.414914,162.330973 C144.024636,162.181675 145.453309,162.064308 146.879171,161.919324 C159.063667,160.680491 170.482887,157.072953 180.938843,150.660682 C192.932779,143.305188 201.753191,133.14185 207.369667,120.228963 C208.455111,117.733486 208.648933,115.194263 206.457067,113.250602 C202.52853,109.767003 198.432269,106.472385 194.422881,103.09933 C194.439668,103.099831 194.441375,103.133368 194.409481,103.034764 C194.269058,102.856168 194.160503,102.776126 193.932655,102.623542 C192.624129,101.794726 191.529275,100.673059 190.231314,100.338216 C175.48126,96.5327683 160.702573,92.8380901 145.925669,89.137191 C142.400535,88.2543202 140.656788,88.9529263 138.654729,92.0106039 C136.677939,95.0298035 134.019811,97.252495 130.648425,98.4315796 C127.121861,99.6649448 123.489854,100.595626 119.684878,99.1292322 C119.370256,97.2344098 119.097163,95.497539 118.824096,93.7606435 M266.698711,15.0557724 C266.648473,14.9488154 266.567773,14.8753703 266.221081,14.6623844 C264.669099,13.9035025 263.122888,12.4987651 261.564181,12.4847181 C244.162999,12.3278195 226.759759,12.3404367 209.357523,12.4155122 C204.683358,12.4356543 202.171049,17.2309051 204.547954,21.2528254 C204.86097,21.782468 205.220108,22.2851952 205.563588,22.7965266 C217.571576,40.6717974 229.565412,58.5566003 241.620978,76.3997139 C242.455989,77.6356378 242.372879,78.4207825 241.583639,79.6142149 C227.895892,100.312054 214.254869,121.040872 200.614374,141.76994 C197.938203,145.836836 198.488553,148.501753 202.660848,151.453678 C202.805889,151.503394 202.950929,151.55311 203.064427,151.603879 C203.064427,151.603879 203.061943,151.572449 203.106358,151.85291 C207.338652,155.346618 211.57097,158.8403 216.063106,162.556601 C216.466961,162.602956 216.870866,162.68972 217.27472,162.68987 C235.396487,162.696593 253.518254,162.699176 271.64002,162.679837 C272.21968,162.67921 272.799139,162.444251 273.630286,162.196374 C274.593073,161.080751 275.763885,160.084151 276.482713,158.828912 C279.588735,153.404813 282.562465,147.905012 285.815233,142.630788 C286.19816,143.336894 286.559456,144.055743 286.967928,144.746773 C288.348171,147.081765 289.123961,149.873856 291.966853,151.455509 C296.31686,155.074234 300.666816,158.692959 305.274433,162.539118 C305.608428,162.591141 305.942472,162.688566 306.276466,162.688692 C324.536398,162.694834 342.796279,162.698474 361.05621,162.680238 C361.56877,162.679712 362.081129,162.450372 362.85451,162.218071 C363.718279,161.288319 364.839355,160.489227 365.392165,159.401548 C366.529703,157.16348 365.73163,155.104159 364.385916,153.104687 C350.456921,132.40908 336.582127,111.677002 322.627134,90.9989782 C321.712577,89.6438315 321.747106,88.8082685 322.647259,87.4811903 C329.167652,77.86859 335.585915,68.1868342 342.043876,58.5318927 C347.667126,50.1249655 353.310502,41.7315083 358.923063,33.3174574 C360.900129,30.3535675 360.69918,27.1835649 358.360718,25.1614425 C355.515919,22.7014594 352.608236,20.31319 349.696939,17.9315179 C348.828303,17.2209468 347.856331,16.636597 346.957934,15.9825649 C346.957934,15.9825649 346.954722,16.0111101 346.930934,15.7134917 C346.748704,15.646092 346.566476,15.5786672 346.244677,15.2962247 C344.985987,13.2295033 343.070049,12.3879705 340.730733,12.387218 C323.645278,12.3815992 306.559822,12.3817998 289.474367,12.3860389 C286.762262,12.3867162 284.803715,13.536277 283.623969,16.0645886 C282.154996,19.2125928 280.566377,22.3048109 278.804162,25.2872626 C274.789705,21.9079864 270.775198,18.5287106 266.799386,15.1454463 C266.799386,15.1454463 266.807817,15.1833477 266.698711,15.0557724 M285.914604,152.455044 C283.206012,157.432503 280.497371,162.409962 277.769808,167.422236 C286.260894,167.829495 294.434597,168.221553 302.897929,168.627508 C296.843371,163.2156 289.680233,159.085167 287.240142,150.334694 C286.620383,151.323644 286.345158,151.762809 285.914604,152.455044 M203.880994,171.973398 C200.546496,169.158856 197.226401,166.326882 193.860285,163.550643 C193.41465,163.183117 192.534219,162.747362 192.195633,162.940281 C189.720837,164.350311 187.333066,165.912975 184.426964,167.735231 C192.419366,167.094418 198.978353,169.378865 204.837834,173.989977 C204.960892,173.787852 205.083901,173.585778 205.206959,173.383653 C204.841448,172.976495 204.475936,172.569336 203.880994,171.973398 Z" id="Shape" fill="#392315"></path>
            <path d="M44.2132612,185 C41.5699511,184.918597 38.9266411,184.837244 36.1558707,184.864029 C27.2790601,184.935737 18.5297103,184.898958 9.78036005,184.863129 C8.97527484,184.859831 8.17021508,184.862629 7.17885151,184.862629 C7.17885151,172.17505 7.17885151,159.720163 7.17885151,147.075759 C4.70748497,147.075759 2.41472843,147.075759 0,147.075759 C0,139.412206 0,131.938069 0,124.128251 C14.9058629,124.128251 29.8505957,124.128251 45.1770325,124.100192 C51.0334149,124.037379 56.508118,124.002624 62.1651145,124 C70.5082257,124.032181 78.6689933,124.032181 87,124.032181 C87,130.749355 87,137.072257 86.9778206,143.592069 C86.9607791,144.683165 86.9658669,145.577324 86.9709792,146.471508 C86.2312783,146.725436 85.4915523,146.97934 84.5956216,147.286887 C84.5956216,152.049639 84.5956216,156.920079 84.5956216,161.909349 C85.2976052,162.022084 85.949267,162.126724 86.7983591,162.263095 C86.8402357,162.91427 86.8823382,163.568767 86.9311322,164.592926 C86.9439384,167.957509 86.950053,170.952456 86.9561681,173.947378 C86.9463691,175.615615 86.9365956,177.283853 86.9349664,179.33242 C86.9430864,181.386235 86.9430864,183.05972 86.9430864,184.756291 C86.3884862,184.809909 86.1226891,184.857282 85.8567166,184.858182 C74.7057447,184.896959 63.5547979,184.93109 52.403826,184.967019 C49.6736294,184.975814 46.9434578,184.988906 44.2132612,185 M47.5355744,176.605344 C47.6699514,176.553374 47.8043037,176.501354 48.3193073,176.432544 C50.4184677,176.432544 52.5176282,176.432544 54.5443121,176.432544 C54.5443121,161.709615 54.5443121,147.224948 54.5443121,132.726864 C52.1932385,132.726864 49.9657406,132.726864 47.5626153,132.726864 C47.5626153,138.985703 47.5626153,145.14987 47.5626153,151.322334 C44.8325189,151.322334 42.2825611,151.322334 39.5747689,151.322334 C39.5747689,145.017047 39.5747689,138.848657 39.5747689,132.770339 C37.1908153,132.770339 34.970911,132.770339 32.8497469,132.770339 C32.8497469,147.398298 32.8497469,161.884888 32.8497469,176.291925 C35.2033268,176.291925 37.4222033,176.291925 39.7978119,176.291925 C39.7978119,169.986713 39.7978119,163.819847 39.7978119,157.709248 C42.4669097,157.709248 44.9698534,157.709248 47.616672,157.709248 C47.616672,164.010312 47.616672,170.203313 47.5355744,176.605344 M78.7191152,138.069531 C78.7191152,136.255103 78.7191152,134.440675 78.7191152,132.695832 C72.2767812,132.695832 66.0897441,132.695832 59.9571645,132.695832 C59.9571645,147.384031 59.9571645,161.942081 59.9571645,176.475619 C66.2406116,176.475619 72.3832657,176.475619 78.6161643,176.475619 C78.6161643,174.409311 78.6161643,172.408766 78.6161643,170.261055 C74.6428918,170.261055 70.7725944,170.261055 66.8528772,170.261055 C66.8528772,165.855922 66.8528772,161.598829 66.8528772,157.177455 C69.9913674,157.177455 73.0371074,157.177455 76.1206393,157.177455 C76.1206393,155.075968 76.1206393,153.141059 76.1206393,151.039997 C72.9681394,151.039997 69.9228256,151.039997 66.8471632,151.039997 C66.8471632,146.88337 66.8471632,142.895421 66.8471632,138.758084 C68.3569388,138.758084 69.7800782,138.79164 71.2010123,138.750638 C73.6969639,138.67868 76.1916119,138.561022 78.7191152,138.069531 M9.59523424,138.757859 C11.493731,138.757859 13.3922282,138.757859 15.4498372,138.757859 C15.4498372,151.369231 15.4498372,163.8151 15.4498372,176.322108 C17.8283277,176.322108 20.0417162,176.322108 22.4296292,176.322108 C22.4296292,163.771975 22.4296292,151.329605 22.4296292,138.736147 C24.8277928,138.736147 27.0553157,138.736147 29.2984763,138.736147 C29.2984763,136.585463 29.2984763,134.590414 29.2984763,132.646411 C22.201073,132.646411 15.240578,132.646411 8.09899166,132.646411 C8.09899166,134.408794 8.03824386,136.100642 8.14888813,137.781272 C8.17174374,138.128122 8.83307886,138.433146 9.59523424,138.757859 Z" id="Shape" fill="#000000"></path>
            <path d="M61.8763479,123.88865 C56.3825364,123.923694 50.8886999,123.958713 45.2140951,124 C41.6649489,117.409207 38.7511321,110.620082 37.3371773,103.319398 C36.4669606,98.8262782 35.9688174,94.2566509 35.4189683,89.7073902 C35.1412022,87.4093973 34.9656145,85.0776949 35.0056762,82.7657547 C35.6176172,47.4227597 55.6203829,17.9150002 90.8540693,5.5759007 C97.9636027,3.08612342 105.192969,0.897667459 112.705181,0.349427218 C119.095918,-0.116943385 125.560641,-0.0836116362 131.964731,0.255649553 C146.039369,1.00133906 158.956443,5.83628802 170.958359,12.8904315 C176.825224,16.3386795 182.197342,20.7222371 187.459736,25.0857046 C193.787978,30.3328474 200.162619,35.6330842 205.758785,41.6206299 C210.105116,46.2709186 213.473519,51.892341 216.92441,57.3069992 C219.284656,61.0104737 217.599498,65.278653 213.44153,66.8234036 C196.610983,73.0762454 179.755665,79.2627001 162.889633,85.4190704 C159.325725,86.719949 157.031217,85.7414896 154.622434,82.0548319 C156.270397,81.7167541 157.90508,81.7905426 159.327133,81.2757348 C173.398678,76.1814309 187.435065,70.9899259 201.481135,65.8251563 C205.908067,64.1973024 207.100966,60.8391565 204.851876,56.694713 C199.918828,47.6045248 193.036135,40.2389639 184.928354,33.9490645 C184.516722,33.6297422 183.876765,33.6052967 183.347463,33.4530876 C183.351763,33.462654 183.3368,33.4278118 183.466541,33.2892976 C183.353322,32.895507 183.110337,32.6402054 182.885634,32.3855077 C182.903892,32.386112 182.902383,32.4226664 182.862221,32.2853607 C182.570748,32.0834806 182.319413,32.0189063 182.08186,31.9563461 C182.095616,31.9583602 182.098282,31.9860778 182.1099,31.8557709 C181.968641,31.6631554 181.815737,31.6008719 181.674326,31.5414836 C181.685819,31.5444043 181.688007,31.5680182 181.665952,31.4395241 C181.495973,31.2229168 181.348049,31.1347529 181.073879,31.0076687 C180.384329,30.3705092 179.84889,29.7427909 179.253573,29.1784127 C165.285062,15.9352218 148.407864,9.43304481 129.461792,8.11930163 C120.993404,7.53208993 112.522477,8.1423872 104.195048,10.1169293 C91.5028025,13.1264237 80.0478933,18.5801037 70.3296712,27.3687685 C57.3400187,39.1158981 49.9396923,53.775673 48.0871963,71.1983514 C46.7419478,83.8504286 47.6923884,96.3072217 52.876143,108.035193 C55.3206368,113.565758 58.8425973,118.619076 61.8763479,123.88865 Z" id="Path" fill="#382315"></path>
            <path d="M183.48036,34 C184.01166,34.1605114 184.648824,34.1847696 185.058661,34.501646 C193.131072,40.7433655 199.983739,48.0525071 204.895266,57.0730657 C207.134544,61.1857633 205.94685,64.5181861 201.53923,66.133571 C187.554436,71.258779 173.579283,76.4105178 159.569126,81.4658 C158.153277,81.9766644 156.525725,81.9034411 154.838154,82.1083718 C153.347189,80.9340004 152.014494,79.7525595 150.533594,78.3482253 C144.933748,72.648798 138.328315,71.8331985 131.318829,73.9238479 C125.233228,75.7389917 121.612956,80.1295432 120.2248,86.3211983 C119.96665,88.6273206 119.708499,90.9334433 119.472757,93.4371262 C119.76764,95.3645907 120.040139,97.0944451 120.187818,99 C116.949739,98.5067482 114.058349,97.3361744 111.778759,95.0575075 C105.928749,89.2098596 104.883576,82.1350777 107.0239,74.5076611 C109.29728,66.4060289 115.956297,61.4670644 124.271685,61.6581046 C130.032482,61.7904112 134.952798,63.9104152 138.612831,68.6253126 C140.582666,71.1628967 142.737437,71.6413589 145.648908,70.5766854 C159.858525,65.3804778 174.067417,60.1821963 188.266943,54.9586328 C192.69537,53.3295577 194.073385,49.9048749 191.621252,45.9419467 C189.08902,41.8495849 186.208521,37.9716969 183.48036,34 Z" id="Path" fill="#EB259B"></path>
            <path d="M120,86 C121.263129,80.0650141 124.871506,75.7918824 130.937113,74.0252823 C137.923568,71.9905446 144.507298,72.7843319 150,78.2215568 C145.221806,75.5103234 139.88421,75.022069 134.505584,75.6991236 C127.920481,76.5280208 123.210993,80.2241751 120,86 Z" id="Path" fill="#3D271B"></path>
            <path d="M43.9305297,185.605718 C46.6771127,185.42394 49.4166294,185.410714 52.1561712,185.401829 C63.3453117,185.365534 74.5344271,185.331057 85.7235676,185.291884 C85.9904505,185.290975 86.2571574,185.24312 86.8136559,185.188955 C86.8136559,183.475108 86.8136559,181.784581 86.8205208,179.903645 C87.7412453,180.295269 88.655105,180.877253 89.7769536,181.591697 C95.760155,177.523157 102.298271,174.696881 109.95313,174.583352 C117.4898,174.471538 124.158704,176.486651 130.259215,181.001081 C131.665247,179.947815 133.033208,178.825492 134.495016,177.843908 C144.306892,171.255909 157.671657,171.293719 167.343566,178.080255 C168.920647,179.186828 169.879922,179.035035 171.441563,178.139115 C180.658541,172.851331 190.224708,171.788676 200.053708,176.380794 C201.830002,177.210686 203.415759,178.451435 205.0931,179.504752 C209.043762,173.811966 215.221977,173.528925 221.238548,173.451791 C224.517488,173.409792 227.798994,174.558566 231.101823,175.001579 C232.761612,175.224296 234.496339,175.265892 236.15487,175.054734 C247.614012,173.595558 259.129432,173.300402 270.648825,173.531953 C280.773426,173.735539 290.890534,174.317978 301.010307,174.748724 C301.551517,174.771743 302.361495,174.750037 302.57997,175.07003 C303.988743,177.133098 305.595976,175.783817 307.075311,175.387953 C322.624629,171.227085 338.240485,170.298783 353.518217,176.040206 C368.634155,181.720926 376.956485,193.281309 379.371986,209.164096 C380.68676,217.809257 378.724506,225.820136 374.11691,233.188102 C373.513236,234.153381 373.618802,234.79367 374.137329,235.770711 C376.383591,240.003209 378.565025,244.275234 380.590499,248.617275 C381.064516,249.633438 381.067986,251.013865 380.896384,252.168041 C379.309672,262.841338 373.750974,270.565844 363.526187,274.2733 C353.69515,277.837998 344.582707,275.669881 336.203897,269.732267 C335.925823,269.535243 335.651824,269.332314 335.389241,269.141802 C323.102921,277.025623 311.347399,275.717231 299.883178,267.171465 C295.408306,270.842727 290.200607,272.939567 284.475537,273.754113 C282.44428,274.043111 280.391246,274.319691 278.345655,274.339832 C271.069682,274.411262 263.777615,274.659977 256.520854,274.279559 C250.658936,273.972287 244.860941,272.783937 239.901139,269.117672 C229.152696,276.732687 218.166968,277.961725 207.518005,271.045202 C204.731187,271.780242 202.525336,272.426286 200.289308,272.93992 C193.072506,274.597836 185.848914,275.28805 178.674736,272.727349 C177.263498,272.223709 175.803802,271.732942 174.55031,270.942526 C173.270212,270.1353 172.391936,270.197895 171.075149,270.985888 C161.291211,276.841169 151.483535,276.292552 141.810142,270.684472 C140.451235,269.89663 139.618121,269.825756 138.199616,270.719758 C128.498512,276.83395 118.499971,277.491755 108.242067,272.012955 C107.528024,271.631579 106.385203,271.562421 105.623205,271.843544 C96.5357829,275.196277 87.5285288,275.630405 78.5278885,271.515172 C77.9487578,271.250303 76.9710253,271.494475 76.3244258,271.80629 C71.2535754,274.251694 65.9290188,275.655645 60.3031032,275.604711 C46.9013971,275.483256 36.418982,266.145004 34.449108,252.815447 C33.4270669,245.899631 34.3049664,239.122737 35.5272766,232.341046 C37.8028604,219.715434 40.0459036,207.083965 42.3110512,194.456484 C42.8306596,191.559889 43.3850709,188.669503 43.9305297,185.605718 M267.962746,213.822646 C267.865176,213.736679 267.760163,213.661161 267.634479,213.2184 C267.634479,212.280835 267.634479,211.343269 267.634479,210.255071 C272.939044,210.255071 278.005519,210.302623 283.070536,210.236999 C286.055661,210.198331 288.877936,209.449005 291.40378,207.760902 C297.130057,203.93391 297.986104,195.219945 295.539723,189.527513 C295.28388,188.932151 294.009541,188.483737 293.197601,188.46728 C280.787911,188.215082 268.376913,187.989336 255.965211,187.889587 C251.807792,187.856219 247.647407,188.193779 243.360432,188.366926 C242.932232,194.675518 242.26881,200.686983 242.170285,206.707737 C241.982035,218.206888 242.055313,229.711996 242.159723,241.213317 C242.184518,243.940047 242.517763,246.718468 243.131848,249.374728 C244.777806,256.49423 248.968016,259.987298 257.074436,260.225463 C265.290949,260.466858 273.557806,260.414056 281.747865,259.778815 C292.943468,258.910407 298.35551,249.069626 293.367745,239.540711 C292.746015,238.352967 292.041352,237.870428 290.667331,237.885017 C283.805526,237.95791 276.942564,237.918333 270.080005,237.918283 C269.342449,237.918283 268.604894,237.918232 267.719526,237.918232 C267.719526,236.432857 267.719526,235.143951 267.867389,233.773064 C267.964154,233.708652 268.03542,233.622886 268.464072,233.474475 C272.505664,233.465742 276.557768,233.627379 280.584272,233.375685 C282.569662,233.251555 284.678271,232.688299 286.43417,231.758759 C291.133804,229.270598 292.519644,224.209671 290.768472,217.890378 C290.159618,215.693083 289.069404,214.448347 286.746192,214.397816 C280.531112,214.262529 274.316535,214.106394 267.962746,213.822646 M105.77323,240.696099 C106.710804,236.674707 107.648402,232.653316 108.586,228.631925 C108.879136,228.653581 109.172297,228.675237 109.465433,228.696892 C109.465433,235.064647 109.271677,241.441133 109.556289,247.796065 C109.678175,250.517192 110.296535,253.460834 111.559507,255.837435 C114.699738,261.746527 123.079806,263.328672 129.492112,259.571746 C132.582275,257.761279 134.618034,255.750003 133.890185,251.39509 C132.476408,242.9361 131.815449,234.35101 130.817323,225.821146 C130.020924,219.015124 129.041632,212.227225 128.403256,205.406816 C127.400276,194.691267 119.159748,187.662124 108.608908,188.761882 C101.691202,189.482939 99.6151333,191.270841 98.0528386,197.964342 C96.0470296,206.558165 94.0791423,215.160822 92.0821601,223.756714 C91.9078177,224.507201 91.6390235,225.235678 91.4141104,225.974353 C89.7528381,220.487475 88.4950959,215.079398 87.2216373,209.675055 C86.5019865,206.621063 85.8138697,203.557884 85.0125673,200.525245 C81.5898877,187.570906 68.4787025,186.153023 60.4815949,189.468703 C58.1770678,190.424139 57.0600723,191.82183 56.6202297,194.405348 C54.2042766,208.596296 51.5225725,222.74146 49.0250688,236.918829 C48.2029696,241.585557 47.4364203,246.295193 48.4501879,251.052028 C49.5531765,256.227443 52.2256517,259.901179 57.6739808,261.169136 C62.313539,262.248955 66.4224743,260.769637 70.4768915,258.870881 C70.8292736,258.705811 71.0913282,258.021655 71.129451,257.556583 C71.441598,253.748571 71.7260586,249.937479 71.9501918,246.123208 C72.25907,240.866014 72.4943685,235.604429 72.7998517,230.347035 C72.8370187,229.707755 73.1130802,229.082358 73.4155961,227.926416 C75.2185705,235.628256 76.9030536,242.813585 78.582281,250.000226 C80.0173078,256.141779 83.4785374,259.466243 89.4397353,260.191994 C93.0301944,260.629151 96.547853,260.133589 99.955847,258.859927 C101.155047,258.411664 101.774036,257.707215 102.067574,256.38802 C103.209942,251.254301 104.500702,246.153798 105.77323,240.696099 M316.559122,187.575601 C312.985109,188.726243 309.405262,189.858914 305.839296,191.03414 C303.667368,191.749896 302.857792,193.423663 302.680054,195.595566 C301.382731,211.450993 301.261222,227.314497 302.768772,243.150741 C303.335078,249.099662 305.775473,254.345295 311.047146,257.682632 C316.534327,261.156314 321.420651,261.09912 326.232137,257.985259 C327.013951,257.479298 327.7248,256.305233 327.816586,255.375139 C328.336873,250.104013 328.660211,244.8132 329.046365,239.528798 C329.09173,238.908348 329.110791,238.285929 329.142074,237.664469 C330.163033,238.369877 330.699465,239.145049 331.205921,239.939554 C333.827524,244.052718 336.451442,248.164418 339.05504,252.289092 C341.430003,256.051521 344.50958,258.980927 348.678868,260.665446 C355.982804,263.616459 363.798376,260.446363 366.089501,253.451495 C366.449703,252.351889 366.400466,250.774892 365.86675,249.784323 C363.979886,246.282119 361.881889,242.885065 359.703624,239.553735 C358.223835,237.290564 356.475983,235.203871 354.836915,233.023587 C355.846106,232.239228 356.794743,231.562846 357.675686,230.807008 C362.492755,226.674057 365.356321,221.451392 365.647219,215.085 C366.18018,203.423102 358.57579,192.486047 347.550079,188.800549 C337.466315,185.429998 327.211353,185.838381 316.559122,187.575601 M207.433915,204.617107 C206.694498,206.056444 205.955082,207.495781 205.062471,209.233254 C204.660726,208.32537 204.396333,207.723446 204.128444,207.123036 C202.118738,202.61845 200.184874,198.07767 198.075184,193.620737 C196.216433,189.693844 193.013864,187.795593 188.646922,187.938048 C187.756022,187.967124 186.854886,187.840924 185.971957,187.926538 C181.020101,188.406553 176.883329,190.421868 174.003518,194.616304 C172.809951,196.354736 172.587376,198.06399 173.62956,200.182183 C176.897159,206.823387 179.730901,213.682615 183.086942,220.275762 C184.685699,223.41663 184.483594,225.858147 182.742858,228.842578 C180.09221,233.387094 177.537296,238.075831 175.700323,242.989053 C173.134746,249.850956 176.637468,257.251128 183.145282,259.274368 C185.818788,260.105572 188.780703,260.192347 191.618644,260.248431 C194.621951,260.307694 196.987107,259.076537 197.637051,255.742078 C197.701075,255.413604 197.895108,255.109664 198.0351,254.797142 C200.104153,250.178875 202.174262,245.561062 204.351521,240.70362 C204.71615,241.530534 204.952127,242.084148 205.20274,242.630999 C206.942898,246.428158 208.381798,250.404319 210.488344,253.984565 C215.724912,262.884599 226.247688,263.781276 232.901529,256.052631 C235.377482,253.176682 236.463723,250.097551 234.503782,246.27591 C231.532437,240.482215 228.99925,234.462621 226.050085,228.65666 C224.731638,226.060926 224.753466,223.918301 226.191007,221.379861 C228.959468,216.49087 231.538221,211.484714 233.986261,206.42515 C235.475504,203.347281 235.9201,200.046038 234.810825,196.649337 C232.732291,190.284309 225.01625,186.07907 218.192919,187.778076 C217.265707,188.008871 216.206524,188.768697 215.730998,189.588795 C212.912042,194.450376 210.247237,199.401913 207.433915,204.617107 M140.380572,193.233656 C140.106975,196.519957 139.60082,199.806258 139.600368,203.09261 C139.598407,216.749681 138.868521,230.436031 140.426717,244.047367 C141.229754,251.062275 144.418845,256.785298 151.228194,259.68997 C155.487885,261.50705 159.824625,261.448543 163.788464,258.777695 C164.612373,258.222465 165.370876,257.001403 165.466408,256.019314 C166.001608,250.518252 166.416882,245.001036 166.691108,239.480186 C166.923263,234.807047 167.089256,230.116694 166.962869,225.442697 C166.736447,217.068008 166.861276,208.619971 165.755219,200.348666 C164.278298,189.304138 153.34055,183.945228 143.607836,188.79853 C141.875499,189.662345 140.430363,190.693854 140.380572,193.233656 Z" id="Shape" fill="#EC01BB"></path>
            <path d="M292.192043,150.600004 C289.477852,149.261373 288.699304,146.474372 287.314154,144.143637 C286.90423,143.453866 286.54165,142.736327 286.024347,141.802987 C282.728234,135.690317 279.565186,129.806193 276.238199,123.617106 C275.656076,124.6678 275.263478,125.372293 274.874606,126.07879 C270.934068,133.238673 266.96054,140.380955 263.073843,147.569583 C261.838531,149.854172 260.012533,150.977601 257.471952,150.978002 C239.351288,150.980781 221.230573,150.966034 203.109884,150.95687 C203.109884,150.95687 203.112377,150.988242 203.107492,150.851435 C202.920259,150.694922 202.737885,150.675167 202.555512,150.655437 C198.520237,147.891771 197.96793,145.231712 200.653614,141.17223 C214.342602,120.48095 228.032118,99.7899198 241.768524,79.1298117 C242.560571,77.9385549 242.643976,77.1548415 241.805996,75.9211706 C229.707573,58.1105842 217.6711,40.2583844 205.620423,22.4156992 C205.275722,21.9053 204.915307,21.4034892 204.601179,20.8748122 C202.215823,16.8602236 204.737064,12.0737143 209.427846,12.0536089 C226.891946,11.9786704 244.357054,11.9660761 261.820097,12.1226887 C263.384346,12.1367101 264.936053,13.5388867 266.634072,14.4723271 C266.835936,14.7788672 266.938531,14.8349269 267.082374,14.8163989 C267.082374,14.8163989 267.073913,14.7785665 267.052357,14.9331509 C269.946352,20.6960911 272.861904,26.3044468 275.925027,32.1966328 C277.155857,29.621252 278.251656,27.3283998 279.347457,25.0355473 C280.889846,21.9248799 282.484113,18.8382988 283.958308,15.6960333 C285.142247,13.1723306 287.107757,12.0248655 289.829503,12.0241894 C306.975697,12.019958 324.121891,12.0197578 341.268085,12.0253664 C343.615718,12.0261175 345.538467,12.8661162 346.938323,15.1729397 C347.221426,15.4920987 347.367789,15.567363 347.514201,15.6426523 C347.514201,15.6426523 347.517424,15.6141591 347.419665,15.7885987 C347.906346,18.1824291 347.223592,20.0568218 345.966674,21.9189457 C333.89857,39.7979613 321.894381,57.7196162 309.805779,75.5848352 C308.860975,76.981128 308.827129,77.8961659 309.784072,79.3069555 C323.77296,99.9308085 337.680206,120.60942 351.655999,141.242086 C353.145253,143.440646 353.40801,145.718976 352.388513,147.988067 C351.275237,150.466 348.941808,151.004817 346.368589,150.999968 C330.009858,150.968913 313.650925,150.995403 297.292144,150.967335 C295.591858,150.964431 293.892077,150.728073 292.192043,150.600004 M323.213753,108.47394 C320.118396,103.88776 317.05623,99.278945 313.913027,94.725389 C312.442307,92.5946074 309.62678,91.9633251 307.808388,93.2000756 C305.672845,94.6525036 305.316056,97.0427285 306.882823,99.4524329 C307.404609,100.25485 307.940346,101.048378 308.476435,101.841456 C312.64951,108.015545 316.798209,114.206158 321.011627,120.352956 C322.650617,122.744082 325.082813,123.335654 326.986826,121.974515 C329.234785,120.367503 329.611065,117.975124 327.9757,115.517548 C326.460558,113.240719 324.921039,110.979941 323.213753,108.47394 M307.066456,84.7289284 C305.470074,83.5060989 302.895848,83.2377168 301.557035,84.2271172 C300.194702,85.2338942 299.428644,86.5602056 299.836956,88.3050519 C300.274883,90.1764902 301.412738,91.5832736 303.3372,91.8486262 C305.211095,92.1069931 306.794634,91.2480905 307.782903,89.5658893 C308.744681,87.9287563 308.238358,86.4203687 307.066456,84.7289284 Z" id="Shape" fill="#52FE10"></path>
            <path d="M183.072181,33.4954942 C185.813252,37.4802029 188.711955,41.3800925 191.260192,45.4956727 C193.727823,49.4810849 192.341099,52.925198 187.884683,54.5635158 C173.595412,59.8167156 159.296718,65.0444901 144.997293,70.2701788 C142.06742,71.3408928 139.89903,70.859716 137.916746,68.3077347 C134.23358,63.5660869 129.282167,61.4340549 123.484961,61.3009977 C115.117017,61.1088735 108.415914,66.0758597 106.128165,74.2234573 C103.974314,81.8941487 105.026093,89.00907 110.913076,94.8898951 C113.207074,97.1814903 116.116739,98.3587054 119.417034,99.0129373 C123.363283,100.30502 127.010292,99.3728399 130.551422,98.1374878 C133.936733,96.9565038 136.60584,94.7302316 138.590795,91.7061681 C140.601123,88.6435647 142.352072,87.9438332 145.891766,88.8281263 C160.729704,92.5349874 175.569431,96.2356177 190.380409,100.047196 C191.68373,100.382578 192.783107,101.506053 194.116565,102.453357 C194.373248,102.711081 194.490541,102.778966 194.607858,102.846851 C194.607858,102.846851 194.606145,102.81326 194.565174,102.982848 C195.305643,105.04918 195.0382,106.853769 194.231363,108.702929 C187.177929,124.868483 175.350922,136.296511 159.378835,143.565518 C150.417045,147.64409 140.99052,149.873076 131.150559,150.676671 C123.921299,151.267062 116.751328,151.041196 109.614794,150.062411 C101.598678,148.962955 93.9175827,146.561141 86.5197039,143.28252 C86.5197039,136.924563 86.5197039,130.566606 86.5197039,123.81219 C78.1434452,123.81219 69.9383502,123.81219 61.5499213,123.779831 C58.3270063,118.488618 54.798248,113.445556 52.3490361,107.926217 C47.1552762,96.2220506 46.2030011,83.7905416 47.5508461,71.1641448 C49.4069177,53.77683 56.8215276,39.1468106 69.8362516,27.4235247 C79.5732311,18.6526985 91.0502497,13.2100881 103.766992,10.2067022 C112.110495,8.23616791 120.597772,7.62710939 129.082504,8.2131292 C148.065145,9.52420583 164.974918,16.0131851 178.97039,29.2294957 C179.566856,29.7927284 180.103329,30.4191726 180.856118,31.1617156 C181.166169,31.4096404 181.287846,31.5119457 181.409523,31.614251 C181.409523,31.614251 181.407331,31.590685 181.436862,31.6892716 C181.584466,31.8690347 181.702515,31.9502611 181.820589,32.031462 C181.820589,32.031462 181.817918,32.0038006 181.861257,32.1427368 C182.145153,32.3435036 182.385685,32.4053338 182.626242,32.4671644 C182.626242,32.4671644 182.627754,32.4306842 182.505447,32.567887 C182.609259,32.9601497 182.835378,33.2152097 183.061497,33.4702697 C183.061497,33.4702697 183.07649,33.5050412 183.072181,33.4954942 M91.4060835,83.9064893 C92.077915,86.6760456 92.5133968,89.5309228 93.4807906,92.193752 C94.715954,95.5936215 98.8542813,96.1181124 100.763821,93.1532414 C101.397756,92.1689795 101.587415,90.5201597 101.268016,89.3722138 C99.9805179,84.7450067 99.561439,80.1206633 100.446791,75.3936375 C101.225458,71.236226 102.908349,67.4888646 105.519579,64.1442931 C106.626993,62.7258362 107.172788,61.1294754 106.374921,59.3627733 C105.649672,57.7568404 104.217492,56.823304 102.599458,57.0416323 C101.327834,57.2132299 99.8051961,57.9351209 99.0206327,58.9125744 C93.2589044,66.0906324 91.0789996,74.4397504 91.4060835,83.9064893 M107.947449,52.1782835 C106.919557,54.7643834 107.659975,57.0594704 109.861423,58.1111406 C111.812917,59.0433956 114.268503,58.2266359 115.366292,56.2801711 C116.399904,54.4474677 115.678787,51.8906625 113.793588,50.7039255 C111.951299,49.5441965 110.073886,49.9438708 107.947449,52.1782835 Z" id="Shape" fill="#52FE10"></path>
            <path d="M292,151.034721 C293.624015,151.042714 295.316901,151.279264 297.010289,151.282171 C313.302709,151.310261 329.595279,151.28375 345.887648,151.314797 C348.450428,151.319683 350.774391,150.78043 351.883151,148.300492 C352.898512,146.029566 352.636821,143.749392 351.153608,141.549055 C337.23451,120.899698 323.383681,100.20436 309.451542,79.5638239 C308.498481,78.1518931 308.532189,77.2361151 309.473161,75.8386928 C321.512723,57.9590224 333.468216,40.0228704 345.487363,22.1293923 C346.739182,20.2657621 347.419166,18.3898532 346.921317,16 C347.929756,16.4728736 348.901225,17.05663 349.769413,17.7664795 C352.679208,20.145733 355.58539,22.5315771 358.428721,24.9890621 C360.765976,27.0091309 360.966821,30.1759144 358.990776,33.1367943 C353.381112,41.5423007 347.740648,49.9272343 342.1203,58.3256241 C335.665672,67.9707609 329.250722,77.6426846 322.733694,87.2455232 C321.834005,88.5712538 321.799494,89.4059683 322.71358,90.7597388 C336.66137,111.416763 350.529003,132.127788 364.450809,152.802378 C365.795829,154.79982 366.59349,156.85705 365.456539,159.092845 C364.904015,160.17942 363.783516,160.9777 362.597458,161.942817 C343.220633,161.986118 324.166496,161.993059 305.112357,162 C300.764595,158.384975 296.416884,154.769925 292,151.034721 Z" id="Path" fill="#EB259B"></path>
            <path d="M87.0070537,143.293079 C94.4339182,146.358094 102.121934,148.747743 110.145273,149.84163 C117.288238,150.815458 124.46467,151.040179 131.700443,150.452778 C141.54927,149.653254 150.984289,147.435558 159.954154,143.377644 C175.940632,136.145454 187.778295,124.77531 194.838085,108.691634 C195.64565,106.85184 195.913333,105.056391 195.155325,103 C199.225909,106.192673 203.342795,109.475885 207.291112,112.947423 C209.494015,114.884355 209.299217,117.414786 208.208307,119.901623 C202.563552,132.769804 193.698728,142.897954 181.644402,150.227982 C171.135799,156.618052 159.659082,160.2131 147.413236,161.447644 C145.980194,161.592127 144.544328,161.709087 142.740983,161.826422 C141.253491,161.876016 140.134765,161.938008 139.016063,162 C137.623827,161.989577 136.231566,161.979153 134.481788,161.924135 C133.406717,161.87999 132.689212,161.880415 131.971683,161.880865 C115.561965,160.924011 100.502417,156.161735 87.1272013,146.234034 C86.9950242,145.279229 86.9899042,144.384667 87.0070537,143.293079 Z" id="Path" fill="#EB259B"></path>
            <path d="M203,151.420811 C221.147305,151.290268 239.316982,151.304983 257.486609,151.30221 C260.034055,151.301811 261.864986,150.180791 263.103636,147.901102 C267.000836,140.727893 270.9851,133.60093 274.936286,126.456404 C275.326208,125.751422 275.719867,125.04844 276.303563,124 C279.63954,130.175812 282.811134,136.047315 286,142.048262 C282.976375,147.628224 279.98401,153.106225 276.858524,158.508823 C276.135191,159.759086 274.957042,160.751736 273.667689,161.907908 C254.164368,161.968594 234.981631,161.98431 215.798844,162 C211.540003,158.520166 207.281163,155.040332 203,151.420811 Z" id="Path" fill="#EB259B"></path>
            <path d="M279,24.8815777 C278.033493,27.2055116 276.955783,29.4636314 275.745272,32 C272.732715,26.1970695 269.865293,20.6736697 267,15 C270.964352,18.1717246 274.926624,21.4937439 279,24.8815777 Z" id="Path" fill="#E82898"></path>
            <path d="M306,162.318951 C324.850678,162.025311 343.829559,162.008404 363,162.036358 C362.681386,162.379742 362.171314,162.937786 361.661042,162.939068 C343.482617,162.98344 325.304241,162.977886 307.125815,162.959637 C306.793312,162.959332 306.460759,162.722271 306,162.318951 Z" id="Path" fill="#6D3D39"></path>
            <path d="M216,162.370031 C234.84982,162.060826 253.828951,162.022435 273,162.022802 C272.614916,162.367467 272.038015,162.939183 271.460914,162.940709 C253.419135,162.987767 235.377356,162.981481 217.335577,162.965123 C216.933504,162.964757 216.531382,162.753637 216,162.370031 Z" id="Path" fill="#6D3D39"></path>
            <path d="M139,162.783172 C139.865162,162.442718 140.850873,162.291352 142,162.216828 C141.149149,162.519805 140.134861,162.746063 139,162.783172 Z" id="Path" fill="#6D3D39"></path>
            <path d="M132,162.540367 C132.548078,162.309776 133.197644,162.308738 134,162.456749 C133.469,162.660545 132.785255,162.715172 132,162.540367 Z" id="Path" fill="#6D3D39"></path>
            <path d="M203,151.369413 C203.216402,151.194608 203.58716,151.242765 204,151.623075 C203.746173,151.834257 203.450263,151.713285 203,151.369413 Z" id="Path" fill="#EB259B"></path>
            <path d="M194.911133,103.771741 C194.704529,103.846754 194.42041,103.681837 194.088867,103.232313 C194.305542,103.142408 194.56958,103.337171 194.911133,103.771741 Z" id="Path" fill="#EB259B"></path>
            <path d="M348,15.7592685 C347.727718,15.9378575 347.431368,15.7543855 347,15.2379675 C347.235264,15.0691445 347.605547,15.2332065 348,15.7592685 Z" id="Path" fill="#EB259B"></path>
            <path d="M267.83374,15.7112574 C267.617798,15.9116354 267.36914,15.7749784 267.16626,15.2382354 C267.382568,15.1170804 267.578857,15.2957914 267.83374,15.7112574 Z" id="Path" fill="#E82898"></path>
            <path d="M46.9748266,176.963527 C46.9748266,170.728821 46.9748266,164.494115 46.9748266,158.150619 C44.2907438,158.150619 41.7525615,158.150619 39.0458858,158.150619 C39.0458858,164.302367 39.0458858,170.510762 39.0458858,176.858434 C36.6368314,176.858434 34.3867156,176.858434 32,176.858434 C32,162.354379 32,147.770234 32,133.043768 C34.1510277,133.043768 36.4021857,133.043768 38.8197026,133.043768 C38.8197026,139.163018 38.8197026,145.372947 38.8197026,151.720694 C41.5656175,151.720694 44.1514758,151.720694 46.9200089,151.720694 C46.9200089,145.506665 46.9200089,139.300986 46.9200089,133 C49.3569674,133 51.615826,133 54,133 C54,147.595716 54,162.177925 54,177 C51.9447827,177 49.8160684,177 47.4180185,176.963426 C47.1486825,176.926903 46.9748266,176.963527 46.9748266,176.963527 Z" id="Path" fill="#FFFFFF"></path>
            <path d="M78.9836304,138.598204 C76.4404281,138.894692 73.9141283,139.012941 71.3865084,139.085262 C69.9475457,139.126469 68.5063496,139.092745 66.9774182,139.092745 C66.9774182,143.250893 66.9774182,147.258901 66.9774182,151.436436 C70.0921042,151.436436 73.1760565,151.436436 76.368555,151.436436 C76.368555,153.548067 76.368555,155.492708 76.368555,157.604766 C73.2458996,157.604766 70.1615157,157.604766 66.9832046,157.604766 C66.9832046,162.048379 66.9832046,166.326886 66.9832046,170.754176 C70.9526547,170.754176 74.872058,170.754176 78.8957429,170.754176 C78.8957429,172.91269 78.8957429,174.923299 78.8957429,177 C72.5837621,177 66.3631707,177 60,177 C60,162.393357 60,147.762081 60,133 C66.2103891,133 72.4759265,133 79,133 C79,134.75362 79,136.577174 78.9836304,138.598204 Z" id="Path" fill="#FFFFFF"></path>
            <path d="M9.30192767,139.156626 C8.74307965,138.829704 8.08848143,138.522415 8.06585864,138.17299 C7.95634147,136.47988 8.01647045,134.775469 8.01647045,133 C15.0853068,133 21.9748966,133 29,133 C29,134.958438 29,136.968301 29,139.134954 C26.77969,139.134954 24.5748585,139.134954 22.2011245,139.134954 C22.2011245,151.821921 22.2011245,164.356679 22.2011245,177 C19.8375367,177 17.6466956,177 15.2924343,177 C15.2924343,164.400124 15.2924343,151.861842 15.2924343,139.156827 C13.2557857,139.156827 11.3766282,139.156827 9.30192767,139.156626 Z" id="Path" fill="#FFFFFF"></path>
            <path d="M47.150177,177.614952 C47.248932,177.359581 47.666473,177.270714 47.849823,177.379967 C47.705902,177.616173 47.378692,177.743248 47.150177,177.614952 Z" id="Path" fill="#BEBEBE"></path>
            <path d="M183,34 C182.494401,33.8472357 182.173362,33.5137161 182,33 C182.493292,33.1529618 182.838944,33.4861197 183,34 Z" id="Path" fill="#EB259B"></path>
            <path d="M183,32.7305011 C182.728761,32.9131791 182.403071,32.7629721 182,32.2703571 C182.263596,32.0845051 182.604572,32.2410601 183,32.7305011 Z" id="Path" fill="#EB259B"></path>
            <path d="M181.990326,31.8448574 C181.749115,31.9078454 181.454376,31.6593104 181.009674,31.1514984 C181.21878,31.1059654 181.577789,31.3197114 181.990326,31.8448574 Z" id="Path" fill="#EB259B"></path>
            <path d="M181.992798,32.7579213 C181.678589,32.8765743 181.392639,32.6792473 181.007202,32.2354603 C181.27887,32.1399403 181.649964,32.2909413 181.992798,32.7579213 Z" id="Path" fill="#EB259B"></path>
            <path d="M105.74038,240.45246 C104.487414,245.690602 103.197739,250.745634 102.056331,255.833585 C101.763039,257.141019 101.144571,257.839188 99.946379,258.283455 C96.5412498,259.545762 93.0265481,260.036906 89.4391072,259.603646 C83.4829204,258.884365 80.0246003,255.589539 78.5907799,249.502738 C76.912964,242.380166 75.229897,235.258896 73.4284381,227.625717 C73.1261765,228.771354 72.8503471,229.391176 72.8132113,230.024756 C72.5079849,235.235281 72.2728842,240.449959 71.9642657,245.660284 C71.7403209,249.440551 71.4560994,253.217666 71.1442148,256.99173 C71.106124,257.452656 70.8442897,258.130713 70.4922038,258.294311 C66.4411949,260.17614 62.3357136,261.642269 57.7000554,260.572077 C52.2563062,259.315423 49.5860775,255.67444 48.4840161,250.545163 C47.4711007,245.830736 48.2370057,241.163086 49.0584138,236.537962 C51.5538181,222.486985 54.2332679,208.467927 56.6471901,194.403492 C57.0866629,191.843007 58.2027195,190.457776 60.5053094,189.510858 C68.4956945,186.224737 81.5958584,187.62998 85.0156607,200.46883 C85.8162896,203.474433 86.5038279,206.510303 87.2228738,209.537069 C88.4952619,214.893231 89.7519468,220.253095 91.4118226,225.691057 C91.6365467,224.958968 91.9051149,224.236985 92.0793108,223.493189 C94.0746143,214.973929 96.0408474,206.447966 98.0449703,197.930758 C99.6059517,191.296929 101.680275,189.524966 108.592166,188.810338 C119.134137,187.720384 127.367738,194.686862 128.369875,205.306882 C129.007715,212.066486 129.986183,218.793871 130.781912,225.539216 C131.7792,233.993036 132.439602,242.501589 133.852192,250.885167 C134.579429,255.201256 132.545381,257.194601 129.457816,258.988928 C123.050899,262.712361 114.677876,261.14432 111.540285,255.287908 C110.278374,252.932495 109.660534,250.015095 109.53875,247.318228 C109.254378,241.01995 109.447972,234.700311 109.447972,228.389325 C109.155082,228.367862 108.862167,228.3464 108.569277,228.324937 C107.632467,232.310477 106.695657,236.296017 105.74038,240.45246 Z" id="Path" fill="#FFFEFF"></path>
            <path d="M316.144729,187.291232 C326.677626,185.583838 336.988331,185.178211 347.126907,188.526013 C358.212552,192.186635 365.858277,203.049869 365.322419,214.633053 C365.02994,220.956474 362.150808,226.143887 357.307555,230.248943 C356.421824,230.999679 355.46803,231.671496 354.453353,232.450561 C356.101331,234.616128 357.858684,236.688737 359.346516,238.936633 C361.536622,242.245477 363.646023,245.619602 365.543144,249.098167 C366.079761,250.082051 366.129265,251.648404 365.767105,252.740588 C363.463527,259.688243 355.605471,262.836942 348.261832,259.905847 C344.069881,258.232698 340.973565,255.323064 338.585692,251.58603 C335.967941,247.489197 333.329761,243.405249 330.693907,239.319848 C330.184698,238.530705 329.645351,237.760765 328.618841,237.060119 C328.587389,237.677384 328.568224,238.295602 328.522612,238.911864 C328.134359,244.160598 327.809264,249.4157 327.286149,254.651247 C327.193864,255.575064 326.479151,256.741204 325.693087,257.24375 C320.855447,260.336594 315.942562,260.393402 310.425554,256.943165 C305.125226,253.628355 302.671565,248.418128 302.102181,242.50936 C300.586436,226.780005 300.708606,211.023574 302.012981,195.275166 C302.191685,193.117922 303.005661,191.455453 305.189396,190.744528 C308.774745,189.577234 312.374052,188.452208 316.144729,187.291232 M329.969687,210.690449 C329.920486,210.835402 329.871284,210.980404 329.764082,211.5007 C329.754828,212.714322 329.738445,213.927995 329.737719,215.141617 C329.736068,218.31719 329.738798,218.31719 333.452183,218.060427 C334.136254,218.045786 334.83246,218.107207 335.501966,218.001764 C337.307359,217.717474 338.847274,216.963328 339.132118,214.973299 C339.399668,213.103804 338.818199,211.509274 336.786519,210.357022 C334.554746,209.444637 332.361454,209.498838 329.969687,210.690449 Z" id="Shape" fill="#FFFEFF"></path>
            <path d="M207.215335,204.092878 C209.955952,199.018028 212.597315,194.06009 215.391472,189.192224 C215.862815,188.371065 216.91268,187.610257 217.831736,187.379164 C224.595041,185.677961 232.243205,189.888637 234.303453,196.261894 C235.40297,199.662986 234.962286,202.968498 233.486143,206.050346 C231.059639,211.116451 228.503571,216.129079 225.759464,221.024392 C224.334569,223.566113 224.312934,225.711508 225.619782,228.310598 C228.543003,234.124066 231.053906,240.151442 233.999112,245.952628 C235.941811,249.77921 234.865126,252.862322 232.410954,255.741989 C225.815647,263.480626 215.38544,262.58279 210.194939,253.671249 C208.106923,250.086374 206.680682,246.105072 204.955832,242.303004 C204.707424,241.755447 204.473522,241.201116 204.112101,240.373134 C201.953995,245.236856 199.902097,249.860639 197.851246,254.484877 C197.712485,254.797803 197.520159,255.102136 197.456699,255.431034 C196.812472,258.769804 194.468122,260.002554 191.491236,259.943214 C188.67826,259.887057 185.742401,259.80017 183.092414,258.967891 C176.64185,256.942036 173.169941,249.532296 175.712948,242.661522 C177.533762,237.741947 180.0662,233.047148 182.69353,228.496757 C184.418953,225.508468 184.61928,223.063793 183.034587,219.918865 C179.708069,213.317193 176.899256,206.449098 173.660402,199.799307 C172.627387,197.678376 172.848003,195.966912 174.03107,194.226233 C176.885547,190.026373 180.985929,188.008453 185.894223,187.527817 C186.769385,187.442093 187.662593,187.568456 188.545656,187.539342 C192.874182,187.396703 196.048578,189.297409 197.890977,193.229378 C199.982108,197.692073 201.89896,202.238725 203.890987,206.749134 C204.156519,207.350321 204.418586,207.953023 204.816797,208.86208 C205.701555,207.122361 206.434467,205.681163 207.215335,204.092878 Z" id="Path" fill="#FFFEFF"></path>
            <path d="M267.771311,233.668953 C267.771311,234.949429 267.771311,236.229956 267.771311,237.705674 C268.66033,237.705674 269.400926,237.705725 270.141522,237.705725 C277.032375,237.705775 283.923632,237.745094 290.813728,237.672675 C292.193413,237.658181 292.900982,238.137582 293.525275,239.317605 C298.533604,248.784568 293.099249,258.56137 281.857488,259.424131 C273.633662,260.055242 265.332722,260.107701 257.082333,259.867875 C248.942491,259.631259 244.735005,256.160901 243.082261,249.087686 C242.465644,246.448696 242.131026,243.688338 242.106129,240.979336 C242.001289,229.55279 241.927708,218.122482 242.116734,206.698093 C242.215665,200.716482 242.881823,194.7441 243.311788,188.476523 C247.616437,188.304502 251.793976,187.969137 255.968535,188.002288 C268.431409,188.101388 280.893576,188.325666 293.35443,188.576225 C294.169717,188.592574 295.44931,189.038074 295.706208,189.629564 C298.162675,195.284987 297.303099,203.942299 291.553213,207.744411 C289.016955,209.421538 286.183044,210.165993 283.185612,210.204409 C278.099713,210.269606 273.012349,210.222363 267.685914,210.222363 C267.685914,211.303487 267.685914,212.234957 267.707983,213.471501 C267.871757,213.8183 268.013413,213.860027 268.155118,213.901803 C274.395519,214.048648 280.635718,214.203768 286.876422,214.338175 C289.209212,214.388377 290.303921,215.625021 290.915285,217.80803 C292.673677,224.086239 291.282124,229.114262 286.563114,231.586247 C284.799975,232.509743 282.682673,233.069337 280.689098,233.19266 C276.645993,233.442718 272.577183,233.282132 268.218396,233.295673 C267.869031,233.423409 267.820196,233.546181 267.771311,233.668953 Z" id="Path" fill="#FFFEFF"></path>
            <path d="M139.97766,193.058672 C140.017769,190.694605 141.484988,189.662176 143.243798,188.797591 C153.125241,183.939961 164.230133,189.30365 165.729624,200.358027 C166.852583,208.636708 166.725846,217.092278 166.955728,225.474435 C167.084047,230.1526 166.915517,234.847136 166.679814,239.524442 C166.401397,245.050216 165.979777,250.572352 165.436399,256.078319 C165.339407,257.061284 164.569313,258.283435 163.732814,258.83916 C159.708402,261.51239 155.30539,261.570948 150.980606,259.752248 C144.067201,256.844986 140.829376,251.11686 140.014067,244.095696 C138.43206,230.472222 139.173099,216.773667 139.175091,203.104417 C139.17555,199.815135 139.68944,196.525904 139.97766,193.058672 Z" id="Path" fill="#FFFEFF"></path>
            <path d="M267.262525,233.879639 C267.201246,233.680054 267.319288,233.381226 267.699048,233.120361 C267.849805,233.417358 267.676832,233.624756 267.262525,233.879639 Z" id="Path" fill="#F032C8"></path>
            <path d="M267.948059,213.725017 C267.774231,213.787761 267.431823,213.686198 267.051941,213.298747 C267.287658,213.170207 267.542541,213.352824 267.948059,213.725017 Z" id="Path" fill="#F687DF"></path>
            <path d="M323.33702,108.956829 C324.950379,111.334199 326.485445,113.58591 327.996205,115.853605 C329.62684,118.301324 329.251649,120.684107 327.010191,122.284673 C325.111685,123.640352 322.686524,123.051153 321.052273,120.669618 C316.851041,114.547476 312.714342,108.381694 308.553336,102.232371 C308.018797,101.442474 307.48461,100.652129 306.964334,99.8529304 C305.402098,97.4528918 305.757855,95.0722545 307.887221,93.6256524 C309.700354,92.3938628 312.507738,93.0226129 313.974204,95.1448475 C317.108317,99.6801385 320.161626,104.270466 323.33702,108.956829 Z" id="Path" fill="#FDFFFC"></path>
            <path d="M306.81782,85.1832616 C307.942244,86.6999254 308.474215,88.1605117 307.46372,89.7457633 C306.425391,91.374655 304.76164,92.2063386 302.792826,91.9561595 C300.770883,91.699216 299.575392,90.337014 299.115282,88.5248823 C298.686287,86.8353308 299.491149,85.5510507 300.922489,84.5761788 C302.329118,83.6181329 305.033738,83.8780098 306.81782,85.1832616 Z" id="Path" fill="#FCFFFB"></path>
            <path d="M92.0296989,83.6479024 C91.7176114,74.3918554 93.842923,66.0608062 99.4603554,58.8982827 C100.22527,57.9229445 101.709776,57.2026159 102.949553,57.0313896 C104.527065,56.8135338 105.923378,57.7450499 106.630464,59.3475073 C107.40835,61.1103859 106.876223,62.7032919 105.796543,64.1186791 C103.250709,67.4560124 101.609963,71.1952638 100.850797,75.3436781 C99.9876179,80.0604738 100.396201,84.6748093 101.651455,89.2920024 C101.962855,90.437464 101.777946,92.0827154 101.159888,93.0648472 C99.2981701,96.0233017 95.2634825,95.4999459 94.0592523,92.1074343 C93.1160858,89.4503679 92.6915101,86.6016691 92.0296989,83.6479024 Z" id="Path" fill="#FDFFFC"></path>
            <path d="M108.49638,52.8784687 C110.454621,50.8858983 112.260396,50.5067154 114.032385,51.6069852 C115.845649,52.7328783 116.539249,55.1585965 115.545078,56.8973375 C114.489179,58.7440074 112.127294,59.5188919 110.250266,58.6344335 C108.132821,57.6366823 107.420656,55.459264 108.49638,52.8784687 Z" id="Path" fill="#FCFFFB"></path>
            <path d="M336.856385,211 C338.639317,211.846065 339.197725,213.345289 338.940786,215.103042 C338.66724,216.974124 337.188399,217.683194 335.454612,217.950492 C334.811659,218.049632 334.143065,217.991882 333.282217,217.848287 C332.052205,215.622268 331.026103,213.553706 330,211.485095 C330.04725,211.348807 330.094501,211.212471 330.44084,211.058032 C332.778732,211.026588 334.817583,211.013294 336.856385,211 Z" id="Path" fill="#EC01BB"></path>
            <path d="M330.05,212 C331.040621,214.081926 332.005088,216.357952 333,218.779734 C330.000978,219.245998 329.998513,219.245998 330.000065,215.96078 C330.000658,214.705254 330.015447,213.449677 330.05,212 Z" id="Path" fill="#392315"></path>
            <path d="M337,210.831236 C335.113155,210.988522 333.145124,211.004369 331,210.999199 C332.816861,209.727985 334.850001,209.66724 337,210.831236 Z" id="Path" fill="#3D271B"></path>
        </g>
    </g>
</svg>