<?xml version="1.0" encoding="UTF-8"?>
<svg width="64px" height="64px" viewBox="0 0 64 64" version="1.1" xmlns="http://www.w3.org/2000/svg" xmlns:xlink="http://www.w3.org/1999/xlink">
    <title>Artboard</title>
    <defs>
        <linearGradient x1="0%" y1="0%" x2="100%" y2="100%" id="linearGradient-1">
            <stop stop-color="#E91E8C" offset="0%"></stop>
            <stop stop-color="#8B31C7" offset="100%"></stop>
        </linearGradient>
    </defs>
    <g id="Artboard" stroke="none" stroke-width="1" fill="none" fill-rule="evenodd">
        <g id="favicon" fill-rule="nonzero">
            <rect id="Rectangle" fill="url(#linearGradient-1)" x="0" y="0" width="64" height="64" rx="14"></rect>
            <g id="cxmixer_splash" transform="translate(0.000000, 4.000000)" fill="#53C6D6">
                <path d="M9.98375252,10.8116823 C10.7241472,11.1355033 11.4617041,11.466223 12.2055462,11.7816686 C13.6204603,12.3816987 15.0561608,12.9223712 16.5500306,13.2878832 C16.8843035,13.3696735 17.2224463,13.4351453 17.5758287,13.511822 C17.6635914,11.8374629 17.2863164,10.2538102 16.8525282,8.6285423 C16.9483797,8.68901329 17.0035198,8.72178707 17.0566613,8.75761806 C18.4145345,9.67314202 19.7942679,10.5516721 21.3122638,11.1730353 C21.8064441,11.3753165 22.3256046,11.5147805 22.8336787,11.6819151 C22.9455335,11.7187134 23.016892,11.6890369 23.0885043,11.5778392 C23.6743852,10.6680983 24.0114631,9.65741239 24.2598583,8.61276097 C24.5859132,7.24149703 24.7589441,5.84575544 24.8608747,4.44090453 C24.9088798,3.77921436 24.9339031,3.11581962 24.9714538,2.45332085 C24.9868748,2.18123406 25.0078605,1.90947163 25.0298861,1.58492598 C25.0947577,1.67662833 25.1431162,1.73294138 25.178442,1.79669945 C25.9353417,3.16272781 26.7309479,4.50407254 27.6448187,5.76943539 C28.1718438,6.49916908 28.7354862,7.19714461 29.4180253,7.82828535 C29.9075902,6.95403491 30.2951361,6.04616071 30.6948061,5.10368391 C30.7769135,5.28173465 30.8445267,5.42894494 30.9126202,5.57592526 C31.4780026,6.79629601 32.0938146,7.98705012 32.8905309,9.07287275 C32.97088,9.18238654 33.044382,9.2109266 33.1847879,9.18155495 C34.1626534,8.97699869 34.9773102,8.45780199 35.7326353,7.82968616 C36.8541966,6.89701913 37.7879337,5.78355236 38.6796543,4.63101821 C39.7985465,3.1848684 40.8168109,1.6665736 41.8151999,0.133912142 C41.8454027,0.0875479933 41.875814,0.0413241448 41.9358074,0 C41.9098869,0.195555062 41.8853484,0.391310257 41.8577921,0.5866272 C41.7616776,1.26792649 41.655834,1.94795833 41.5705998,2.6306493 C41.5058982,3.1488488 41.4466344,3.66933597 41.4210991,4.19063056 C41.3792002,5.04588257 41.3203534,5.90449187 41.3539595,6.75822457 C41.3920518,7.72591516 41.5337582,8.68733749 42.0427205,9.54439755 C42.0802871,9.60765413 42.1225303,9.66804679 42.1777383,9.75309436 C42.9911943,9.19229514 43.7916945,8.64042578 44.597542,8.08487252 C44.4273003,8.96250212 44.2569589,9.84065839 44.0758415,10.7743549 C44.4686871,10.7282519 44.798127,10.7058627 45.1216351,10.6487964 C46.4903341,10.4073545 47.7471581,9.84469315 48.9813513,9.2272141 C51.0146672,8.20992156 52.944233,7.00822016 54.8625197,5.78736173 C54.8729061,5.78075295 54.8843301,5.77583598 54.916468,5.77476975 C54.9439564,5.78364324 54.9502553,5.78787933 54.9565497,5.79211653 C54.1425771,6.91256015 53.3102336,8.01984358 52.5196439,9.15704389 C51.6794517,10.3655829 50.9006713,11.6156957 50.3434026,12.9915993 C50.0675075,13.6727963 49.8515742,14.3707741 49.8823842,15.1205736 C49.9024364,15.6086054 50.0404903,16.0568418 50.3601059,16.4334552 C50.3910474,16.469913 50.4486254,16.5099939 50.4899849,16.5061109 C50.795462,16.477419 51.1008258,16.4442621 51.4045944,16.4007354 C52.2218569,16.2836329 53.0383671,16.161028 53.8550314,16.0396261 C53.9825858,16.0206646 54.1093925,15.9965434 54.2721933,15.9687095 C53.7607931,16.498329 53.2750641,17.0013635 52.7546234,17.5403476 C53.0535615,17.5798143 53.2990497,17.6333152 53.5459019,17.6408902 C54.3057495,17.6642016 55.0664808,17.6899951 55.8261743,17.6759493 C56.3972642,17.6653932 56.9677696,17.6006644 57.5376361,17.54968 C58.2432001,17.4865592 58.948746,17.4210114 59.6525926,17.3410476 C60.2821442,17.2695214 60.9093575,17.1768023 61.5376629,17.0938779 C61.6881878,17.0740124 61.8389438,17.0559272 62,17.0675347 C61.6020519,17.2887751 61.202912,17.5078418 60.8063597,17.7316333 C59.0578886,18.7183614 57.331876,19.7427849 55.7033916,20.9264368 C54.731254,21.6330269 53.7944354,22.3829368 53.0457082,23.3431882 C52.7298993,23.7482153 52.4713601,24.1867856 52.331276,24.711816 C54.0855247,25.7961238 56.0373314,26.3616789 57.9710346,26.9289707 C56.7976005,27.3651649 55.6108934,27.8062932 54.4241864,28.2474214 C56.4460963,29.5392668 58.6476645,30.3238655 60.8959124,31.1270922 C60.7935807,31.1494606 60.7363562,31.1693814 60.6780304,31.1735864 C59.9972812,31.2226799 59.3147375,31.2527083 58.6358734,31.3206828 C57.6370132,31.4207009 56.6398115,31.5396874 55.6436022,31.6645673 C54.3647641,31.824886 53.1011247,32.0672987 51.8690431,32.4573552 C51.5115529,32.5705311 51.1632027,32.7132523 50.8093159,32.8385095 C50.7072099,32.8746522 50.6860973,32.9233592 50.7161506,33.034267 C50.9436078,33.8735444 51.3969451,34.5861384 51.9179478,35.2601101 C52.6691174,36.2318124 53.5372376,37.0898237 54.4405952,37.9128471 C54.4896946,37.9575745 54.5387488,38.0023527 54.6105786,38.0678658 C52.5159099,37.7860809 50.4554907,37.5382533 48.3512786,37.7741422 C49.1780755,40.186362 50.6624879,42.1819796 52.0970532,44.2206086 C51.7392774,44.0595721 51.3825166,43.896171 51.0235491,43.7379134 C49.4818622,43.058237 47.9293313,42.4057918 46.3082243,41.9433947 C45.7212195,41.7759634 45.1220521,41.6525004 44.5031178,41.5060526 C44.470332,41.5142188 44.4628549,41.5253018 44.4553824,41.5363847 C44.4759104,42.1244117 44.4411804,42.72112 44.5291245,43.2985609 C44.6848515,44.3210636 44.9151546,45.3318578 45.1129753,46.3410601 C45.0732245,46.3149743 45.0006062,46.2684756 44.9291118,46.220247 C43.5558947,45.2938058 42.1590864,44.4083885 40.6169283,43.7942299 C40.1541018,43.6099189 39.670172,43.4804981 39.1972175,43.321923 C39.068938,43.2789161 39.0005025,43.3241635 38.9293705,43.4360512 C38.3610312,44.3299981 38.0224601,45.3169102 37.7758119,46.3414557 C37.5204629,47.4021345 37.3524508,48.4776874 37.2571203,49.564958 C37.2051841,50.157259 37.153053,50.7496151 37.109899,51.3426107 C37.0768775,51.7963495 37.0588147,52.2511969 37.0321011,52.7054278 C37.0182799,52.9404381 37.000131,53.1751769 36.9857705,53.3834526 C36.3339054,52.3154956 35.685004,51.2175468 35.0014498,50.1423023 C34.3172068,49.0659719 33.5439729,48.0580211 32.5824618,47.1465549 C32.1543335,48.0683863 31.7402305,48.9600145 31.3196064,49.8656977 C31.2887284,49.8034647 31.2531104,49.7364149 31.2215797,49.6674374 C30.6417914,48.399044 30.0197463,47.1549235 29.1998714,46.0237765 C29.0197124,45.775222 29.0210266,45.7733956 28.7181892,45.8468402 C27.8403782,46.0597352 27.0930242,46.525845 26.3963828,47.087294 C25.3823214,47.9045527 24.5282061,48.8806901 23.7161435,49.8962459 C22.4648753,51.4610636 21.3436222,53.120995 20.2551164,54.8044496 C20.2124947,54.8703677 20.1677297,54.9348503 20.1239639,55 C20.1080514,54.9942768 20.0921387,54.9885536 20.0762261,54.9828257 C20.088509,54.9192541 20.1031142,54.8560412 20.1127052,54.7920554 C20.1971984,54.2283935 20.2892435,53.6657207 20.362426,53.1005359 C20.4450771,52.462224 20.5239331,51.8228123 20.5794198,51.1816434 C20.6275019,50.6260233 20.6573513,50.0674958 20.6645565,49.5098515 C20.6720109,48.9331559 20.6658978,48.3542015 20.6236795,47.7794106 C20.5586221,46.893662 20.3794488,46.0353517 19.8463447,45.2491428 C19.032823,45.808434 18.2232913,46.3649833 17.4204551,46.9169275 C17.5905766,46.0606875 17.7627805,45.1939626 17.9464515,44.2695226 C17.5774986,44.2960362 17.2453986,44.2915643 16.9236306,44.3479084 C15.4875178,44.5993659 14.1745502,45.2025475 12.8841587,45.8571273 C10.9281842,46.8493348 9.06094542,47.9992985 7.21367392,49.1834817 C7.18240841,49.2035221 7.1502287,49.2220856 7.10147928,49.2391034 C7.07991014,49.2315445 7.07533775,49.2262263 7.07076545,49.2209125 C7.44124668,48.7197687 7.81309515,48.2196555 8.18195292,47.7172834 C9.27096514,46.2340674 10.3279472,44.7290811 11.1831241,43.0898112 C11.5761951,42.3363451 11.925004,41.5612374 12.0717303,40.7156526 C12.1854895,40.0600513 12.1885936,39.4110335 11.838586,38.800804 C11.7014701,38.5617406 11.5349239,38.4911298 11.2825307,38.5243833 C10.7647183,38.592597 10.243906,38.6384057 9.72711096,38.7132444 C9.14328728,38.7977997 8.56256776,38.9044151 7.9803494,39.0005134 C7.92031752,39.0104277 7.85928199,39.014076 7.76458146,39.0243309 C8.2692296,38.5009936 8.75109658,38.0012807 9.26664544,37.466635 C9.07726694,37.4399144 8.93176314,37.4107417 8.7849734,37.4004456 C8.47092824,37.3784039 8.15619097,37.366617 7.84178789,37.3496728 C7.66463331,37.3401265 7.48743117,37.3177351 7.31050429,37.3201643 C6.78031278,37.3274379 6.24877772,37.3232007 5.72044644,37.3615286 C4.71190224,37.4346882 3.70378515,37.5203154 2.69819669,37.6270503 C1.85219108,37.7168458 1.01005037,37.844118 0.166074915,37.9538204 C0.126682028,37.9589409 0.0860798344,37.9544783 0,37.9544783 C0.517443084,37.6641775 0.997878033,37.3997417 1.47360525,37.1268405 C3.29608971,36.0813759 5.10323993,35.0101938 6.78108431,33.7323828 C7.61377905,33.098216 8.4215535,32.4290291 9.03598333,31.5650968 C9.2781658,31.2245707 9.44203722,30.8268127 9.64368603,30.4562997 C9.71006322,30.3343412 9.66506818,30.270199 9.5552503,30.2040049 C8.56425015,29.60668 7.50259599,29.1715417 6.41350223,28.8045804 C5.63194845,28.5412418 4.84067676,28.3076256 4.07167426,28.0663769 C5.23430286,27.6338748 6.41722829,27.193823 7.60015376,26.7537713 C5.57540022,25.4679068 3.37628473,24.6760183 1.17336667,23.863749 C1.30163308,23.8519001 1.42988926,23.8399292 1.55816926,23.8282366 C1.68734652,23.8164613 1.81641953,23.80317 1.94576046,23.7936605 C2.49363181,23.7533726 3.04409979,23.7358372 3.5890075,23.6703977 C4.89949413,23.5130234 6.2100272,23.3516833 7.51557105,23.1575015 C8.77246853,22.9705566 10.0045082,22.6693708 11.1828544,22.1719167 C11.2331514,22.1506847 11.2835401,22.1296736 11.3392805,22.1062954 C11.1860084,21.464549 10.90346,20.8917019 10.5464602,20.3544799 C9.90975213,19.3963448 9.1263426,18.5686702 8.30645072,17.7742559 C8.0348743,17.5111151 7.75827578,17.2533179 7.48925968,16.9704058 C9.53804516,17.2201726 11.583031,17.4670754 13.7020466,17.2281593 C13.454757,16.6571248 13.2445991,16.1098067 12.9863092,15.5869962 C12.1998047,13.9950163 11.1844734,12.5511773 10.1387081,11.1284896 C10.0759109,11.0430602 10.0139462,10.9569959 9.95770169,10.8509602 C9.97045573,10.8243547 9.97710353,10.8180196 9.98375252,10.8116823" id="Shape"></path>
            </g>
            <g id="cxmixer_wordmark" transform="translate(6.000000, 12.000000)">
                <path d="M21.622054,4 C21.701749,4.02222466 21.7973236,4.02558348 21.8587991,4.06945868 C23.0696608,4.93369676 24.0975608,5.94573175 24.8342899,7.19473217 C25.1701816,7.76418261 24.9920275,8.225595 24.3308845,8.44926368 C22.2331654,9.15890786 20.1368924,9.87222554 18.0353689,10.5721877 C17.8229915,10.6429228 17.5788587,10.6327842 17.3257231,10.6611592 C17.1020783,10.4985539 16.9021741,10.3349698 16.6800391,10.1405235 C15.8400622,9.35137203 14.8492472,9.23844287 13.7978243,9.5279174 C12.8849842,9.779245 12.3419434,10.3871675 12.13372,11.2444736 C12.0949975,11.5637829 12.0562748,11.8830921 12.0209135,12.2297559 C12.065146,12.4966356 12.1060208,12.7361539 12.1281727,13 C11.6424608,12.9317036 11.2087523,12.7696241 10.8668138,12.4541164 C9.98931233,11.6444421 9.83253638,10.6648569 10.153585,9.60875308 C10.494592,8.48698862 11.4934445,7.80313199 12.7407527,7.82958371 C13.6048723,7.84790309 14.3429197,8.1414421 14.8919246,8.79427405 C15.1873999,9.14563185 15.5106155,9.21188046 15.9473362,9.06446413 C18.0787787,8.34498923 20.2101125,7.62522718 22.3400414,6.90196454 C23.0043055,6.6764003 23.2110077,6.20221345 22.8431878,5.65350031 C22.463353,5.0868656 22.0312781,4.54992726 21.622054,4 Z" id="Path" fill="#EB259B"></path>
                <path d="M12,11 C12.2105215,10.5434626 12.8119177,10.2147602 13.8228522,10.0788679 C14.9872613,9.92234958 16.0845497,9.98341015 17,10.4016582 C16.2036343,10.1931018 15.314035,10.1555438 14.4175973,10.2076249 C13.3200802,10.2713862 12.5351655,10.5557058 12,11 Z" id="Path" fill="#3D271B"></path>
                <path d="M1.48814855,26.0931874 C1.89974024,26.0652215 2.310273,26.0631868 2.72080952,26.0618198 C4.39756833,26.056236 6.07432337,26.0509318 7.75108218,26.0449052 C7.79107616,26.0447654 7.83104376,26.0374031 7.91443835,26.02907 C7.91443835,25.7654012 7.91443835,25.5053201 7.91546709,25.2159454 C8.0534431,25.2761952 8.19039037,25.3657312 8.35850601,25.4756457 C9.25512409,24.8497164 10.2348994,24.4149048 11.3820252,24.3974388 C12.5114398,24.3802366 13.5108144,24.690254 14.425012,25.3847817 C14.6357142,25.2227408 14.8407113,25.0500757 15.0597718,24.8990628 C16.5301394,23.8855244 18.5329284,23.8913414 19.9823211,24.9354238 C20.218656,25.1056658 20.3624091,25.0823131 20.5964302,24.9444792 C21.9776488,24.130974 23.4111954,23.9674886 24.8841291,24.6739683 C25.1503173,24.801644 25.3879523,24.9925284 25.6393118,25.1545772 C26.2313418,24.278764 27.1571839,24.2352192 28.0588026,24.2233524 C28.5501711,24.2168911 29.0419242,24.3936255 29.5368726,24.4617814 C29.7856018,24.4960455 30.0455609,24.5024449 30.2941015,24.4699591 C32.0113217,24.2454704 33.7369754,24.2000618 35.4632245,24.2356851 C36.9804558,24.267006 38.4965642,24.356612 40.0130719,24.4228806 C40.0941754,24.426422 40.2155554,24.4230826 40.2482952,24.4723123 C40.4594082,24.7897074 40.7002615,24.5821257 40.9219486,24.5212235 C43.2521058,23.88109 45.592234,23.7382743 47.8816924,24.6215701 C50.146905,25.4955271 51.3940554,27.2740475 51.7560325,29.7175532 C51.9530591,31.047578 51.6590038,32.2800209 50.9685283,33.4135541 C50.8780642,33.5620586 50.8938838,33.6605646 50.9715882,33.8108786 C51.3082038,34.4620321 51.6351046,35.1192668 51.9386338,35.7872731 C52.0096681,35.9436058 52.0101881,36.1559792 51.9844725,36.3335448 C51.7466943,37.9755905 50.9136906,39.163976 49.3814459,39.7343538 C47.9082069,40.2827689 46.5426535,39.9492125 45.2870393,39.0357334 C45.2453683,39.005422 45.2043079,38.9742021 45.1649583,38.9448926 C43.3237806,40.1577881 41.5621462,39.9564971 39.844165,38.6417638 C39.173579,39.2065734 38.3931745,39.5291641 37.535239,39.6544789 C37.2308431,39.6989401 36.9231838,39.7414909 36.6166399,39.7445895 C35.5262924,39.7555788 34.4335331,39.7938426 33.3460646,39.7353168 C32.4676215,39.6880441 31.5987577,39.5052211 30.8555021,38.9411803 C29.2447844,40.1127211 27.5985082,40.3018038 26.0026981,39.2377234 C25.585077,39.3508065 25.2545172,39.4501978 24.9194352,39.5292185 C23.8379548,39.7842825 22.7554568,39.8904692 21.6803639,39.4965152 C21.4688815,39.4190321 21.2501375,39.3435295 21.0622943,39.2219271 C20.870464,39.0977385 20.7388492,39.1073685 20.5415209,39.2285981 C19.07534,40.1294106 17.6056018,40.045008 16.1559867,39.1822265 C15.9523465,39.06102 15.8274994,39.0501163 15.614928,39.1876551 C14.1611603,40.1283 12.6628199,40.2295008 11.1256123,39.3866085 C11.0186088,39.3279352 10.8473503,39.3172955 10.7331604,39.3605452 C9.37135651,39.8763503 8.02156628,39.9431392 6.67276715,39.3100265 C6.585981,39.2692774 6.43946201,39.3068423 6.34256525,39.3548138 C5.58266836,39.7310298 4.7847521,39.9470223 3.94167541,39.9391863 C1.93335058,39.9205009 0.362498748,38.4838468 0.0673014917,36.4331457 C-0.085857405,35.369174 0.0457010214,34.3265749 0.228871426,33.2832378 C0.569881102,31.340836 0.906014377,29.3975331 1.24546013,27.4548437 C1.32332651,27.0092137 1.40640832,26.5645389 1.48814855,26.0931874 M35.0606997,30.4342532 C35.0460782,30.4210275 35.0303414,30.4094094 35.0115069,30.3412923 C35.0115069,30.1970515 35.0115069,30.0528106 35.0115069,29.8853955 C35.8064273,29.8853955 36.5656685,29.8927112 37.3246913,29.8826152 C37.7720299,29.8766663 38.1949645,29.7613854 38.5734771,29.5016772 C39.4315935,28.9129092 39.5598772,27.5722992 39.1932726,26.6965405 C39.154933,26.6049463 38.9639658,26.5359595 38.8422918,26.5334277 C36.9826264,26.494628 35.122765,26.4598978 33.2627982,26.4445518 C32.6397844,26.4394183 32.0163261,26.4913506 31.3738976,26.5179886 C31.3097293,27.4885412 31.2103116,28.413382 31.195547,29.3396518 C31.1673366,31.108752 31.1783178,32.8787686 31.1939642,34.6482026 C31.1976799,35.0676995 31.2476186,35.4951489 31.3396429,35.9038043 C31.5862994,36.9991123 32.2142272,37.5365074 33.4290221,37.5731481 C34.6603151,37.6102858 35.8991525,37.6021625 37.1264812,37.5044331 C38.8042084,37.3708318 39.6152349,35.8568655 38.8677889,34.3908786 C38.7746189,34.2081488 38.669021,34.133912 38.4631159,34.1361565 C37.4348338,34.1473708 36.4063784,34.141282 35.3779834,34.1412743 C35.2674563,34.1412743 35.1569293,34.1412665 35.0242517,34.1412665 C35.0242517,33.9127472 35.0242517,33.714454 35.0464099,33.5035483 C35.0609107,33.4936388 35.0715903,33.480444 35.1358263,33.4576115 C35.7414828,33.456268 36.3487145,33.4811352 36.9521099,33.4424131 C37.2496323,33.4233161 37.5656198,33.3366614 37.8287517,33.1936552 C38.5330196,32.8108612 38.7406959,32.0322571 38.4782724,31.0600581 C38.3870321,30.7220128 38.2236571,30.5305149 37.87551,30.5227409 C36.9441436,30.5019275 36.0128525,30.4779068 35.0606997,30.4342532 M10.7556425,34.5686306 C10.8961435,33.9499549 11.0366481,33.3312794 11.1771527,32.7126038 C11.2210809,32.7159355 11.2650128,32.7192672 11.308941,32.7225988 C11.308941,33.7022534 11.2799055,34.6832512 11.3225563,35.6609331 C11.3408216,36.079568 11.4334865,36.532436 11.6227503,36.8980669 C12.0933325,37.807158 13.3491352,38.0505649 14.3100571,37.4725763 C14.7731363,37.1940429 15.0782068,36.8846158 14.9691343,36.2146292 C14.7572715,34.9132461 14.6582229,33.5924631 14.5086478,32.2801763 C14.3893027,31.233096 14.24255,30.1888038 14.1468856,29.1395101 C13.9965831,27.4909641 12.7616913,26.4095575 11.1805856,26.5787511 C10.1439265,26.6896829 9.83281536,26.9647448 9.59869627,27.9945141 C9.29811394,29.3166408 9.00321441,30.6401265 8.70395483,31.9625714 C8.67782859,32.0780309 8.63754819,32.1901043 8.60384363,32.3037466 C8.35489216,31.4596115 8.16641207,30.6275997 7.97557677,29.7961623 C7.86773285,29.3263174 7.76461448,28.8550591 7.64453458,28.3884992 C7.13162582,26.395524 5.16683726,26.1773881 3.96842345,26.6874928 C3.62307645,26.8344829 3.45568807,27.0495123 3.38977506,27.4469766 C3.02773021,29.6301994 2.62586101,31.8063785 2.25159533,33.9875121 C2.12839891,34.7054703 2.01352696,35.4300297 2.16544603,36.1618505 C2.33073539,36.9580681 2.73122158,37.5232583 3.54768589,37.7183286 C4.24295109,37.8844546 4.85869932,37.6568672 5.46627769,37.3647509 C5.51908423,37.3393555 5.55835466,37.2341008 5.56406759,37.1625512 C5.61084466,36.5767032 5.65347276,35.9903814 5.68706044,35.4035705 C5.73334767,34.5947714 5.76860854,33.7852968 5.814387,32.9764669 C5.81995669,32.8781161 5.86132614,32.7819012 5.90665994,32.604064 C6.1768463,33.7889625 6.42927604,34.8943977 6.68091819,36.0000348 C6.89596543,36.9448891 7.41465114,37.4563451 8.30797186,37.5679991 C8.84602337,37.635254 9.37316529,37.5590137 9.88387332,37.3630657 C10.0635805,37.2941021 10.1563397,37.1857254 10.2003281,36.9827723 C10.3715187,36.1929694 10.5649467,35.4082766 10.7556425,34.5686306 M42.3431537,26.3962463 C41.8075667,26.5732681 41.2711055,26.7475252 40.7367245,26.9283292 C40.4112482,27.0384455 40.2899285,27.2959481 40.2632934,27.6300871 C40.0688819,30.0693835 40.050673,32.5099226 40.2765883,34.9462678 C40.3614526,35.8614865 40.7271602,36.6685069 41.5171515,37.1819434 C42.339438,37.716356 43.0716825,37.7075569 43.7927122,37.2285014 C43.9098716,37.1506612 44.0163965,36.9700358 44.0301512,36.8269445 C44.1081193,36.016002 44.1565734,35.2020308 44.2144408,34.3890458 C44.2212391,34.293592 44.2240955,34.1978352 44.2287834,34.102226 C44.3817801,34.2107503 44.4621676,34.3300075 44.5380631,34.4522391 C44.9309258,35.0850335 45.3241354,35.7176028 45.7142999,36.352168 C46.0702022,36.9310032 46.531695,37.3816811 47.1564874,37.6408378 C48.2510254,38.0948398 49.422235,37.6071328 49.7655736,36.5309992 C49.819552,36.3618291 49.8121736,36.1192141 49.7321931,35.9668189 C49.4494353,35.4280183 49.1350381,34.9053946 48.8086122,34.3928823 C48.5868571,34.0447021 48.3249311,33.7236725 48.0793071,33.3882441 C48.2305404,33.2675735 48.3726992,33.1635148 48.5047137,33.047232 C49.22658,32.4113934 49.6557023,31.6079065 49.699295,30.6284615 C49.7791624,28.8343234 48.6395996,27.1516995 46.9873317,26.5846998 C45.4762201,26.0661535 43.9394535,26.1289817 42.3431537,26.3962463 M25.9900968,29.0180165 C25.8792908,29.2394529 25.7684849,29.4608894 25.6347219,29.7281929 C25.574518,29.5885185 25.5348972,29.4959148 25.4947524,29.403544 C25.1935861,28.7105308 24.9037851,28.0119492 24.5876356,27.3262672 C24.3090908,26.7221298 23.8291669,26.4300912 23.1747549,26.4520074 C23.0412482,26.4564806 22.9062077,26.4370652 22.7738956,26.4502366 C22.0318307,26.5240851 21.411911,26.8341335 20.9803543,27.4794314 C20.8014912,27.7468825 20.768137,28.0098446 20.9243145,28.3357205 C21.4139835,29.3574441 21.8386365,30.41271 22.341559,31.4270403 C22.5811422,31.9102508 22.5508556,32.2858688 22.289996,32.745012 C21.8927807,33.4441683 21.5099118,34.1655125 21.2346305,34.9213928 C20.8501637,35.9770701 21.3750672,37.1155581 22.3503016,37.4268258 C22.7509423,37.5547034 23.1948027,37.5680534 23.620085,37.5766817 C24.0701483,37.5857991 24.4245809,37.3963903 24.5219788,36.8833966 C24.5315732,36.8328621 24.5606502,36.7861021 24.5816288,36.7380218 C24.8916886,36.0275192 25.2019067,35.3170865 25.5281818,34.5697877 C25.5828236,34.6970052 25.6181862,34.7821766 25.655742,34.8663075 C25.916515,35.4504858 26.1321426,36.0622029 26.447821,36.61301 C27.2325516,37.982246 28.8094518,38.1201963 29.8065692,36.931174 C30.1776054,36.4887203 30.340385,36.0150078 30.0466763,35.4270631 C29.6014026,34.5357254 29.2217896,33.609634 28.7798398,32.7164092 C28.5822627,32.3170655 28.5855338,31.9874309 28.8009578,31.5969017 C29.215828,30.8447492 29.6022694,30.0745714 29.9691227,29.2961769 C30.1922945,28.8226586 30.2589199,28.3147751 30.0926885,27.7922057 C29.7812079,26.8129706 28.6249135,26.1660108 27.6023971,26.4273963 C27.4634489,26.4629032 27.304724,26.5797995 27.2334637,26.7059685 C26.8110265,27.453904 26.4116897,28.2156789 25.9900968,29.0180165 M15.9417572,27.2667163 C15.9007571,27.7723011 15.8249067,28.2778858 15.824839,28.7834785 C15.8245451,30.8845663 15.7151674,32.9901586 15.9486723,35.0842103 C16.0690121,36.1634269 16.5469162,37.043892 17.5673374,37.4907646 C18.2056773,37.7703154 18.8555634,37.7613143 19.4495681,37.3504146 C19.5730357,37.2649946 19.6867019,37.0771389 19.7010179,36.9260483 C19.7812208,36.0797311 19.8434521,35.2309286 19.8845464,34.3815671 C19.9193362,33.6626226 19.9442113,32.9410298 19.9252714,32.2219534 C19.8913408,30.9335397 19.9100471,29.6338417 19.7442979,28.3613332 C19.5229726,26.6621751 17.8838864,25.8377274 16.4253818,26.5843892 C16.1657808,26.7172838 15.9492187,26.8759775 15.9417572,27.2667163 Z" id="Shape" fill="#EC01BB"></path>
                <path d="M38.9182921,20.9395547 C38.5129259,20.7373156 38.3966493,20.3162582 38.1897762,19.964133 C38.1285538,19.8599231 38.0744023,19.751518 37.9971427,19.6105099 C37.5048661,18.6870136 37.0324628,17.7980458 36.5355752,16.8630046 C36.4486347,17.0217424 36.39,17.1281765 36.3319217,17.2349134 C35.7433998,18.3166216 35.1499508,19.3956707 34.56947,20.4817216 C34.3849754,20.8268751 34.1122614,20.9966017 33.732824,20.9966623 C31.0264911,20.9970821 28.3201505,20.9948542 25.6138138,20.9934697 C25.6138138,20.9934697 25.6141862,20.9982093 25.6134566,20.9775407 C25.5854932,20.9538948 25.5582555,20.9509103 25.531018,20.9479295 C24.9283471,20.5303975 24.8458597,20.1285184 25.2469683,19.5152157 C27.2914276,16.3891971 29.3359657,13.2632163 31.3875068,10.1419071 C31.5057996,9.96193318 31.5182561,9.84353052 31.3931033,9.65714871 C29.586196,6.96634252 27.7885409,4.26924942 25.9887645,1.57359377 C25.9372831,1.49648316 25.8834549,1.42067006 25.8365397,1.34079805 C25.4802852,0.734277886 25.8568342,0.0111366846 26.5574056,0.0080991802 C29.1656802,-0.00322245599 31.7741055,-0.00512519067 34.3822223,0.0185356897 C34.6158439,0.0206540292 34.8475923,0.232493516 35.1011926,0.37351679 C35.1313411,0.419828572 35.1466637,0.428298017 35.1681468,0.425498825 C35.1681468,0.425498825 35.1668831,0.419783142 35.1636637,0.443137604 C35.5958837,1.31379704 36.0313233,2.161102 36.4888027,3.05128777 C36.672628,2.66220173 36.8362863,2.31579983 36.9999449,1.96939789 C37.2303017,1.49944127 37.4684065,1.03312358 37.6885785,0.55839314 C37.8654005,0.177114574 38.1589507,0.00375665509 38.5654452,0.00365451056 C41.1262405,0.00301523473 43.6870357,0.00298498871 46.2478309,0.00383233058 C46.5984514,0.00394580605 46.8856152,0.130851998 47.0946846,0.479364664 C47.1369662,0.527582898 47.1588256,0.538953756 47.1806924,0.55032839 C47.1806924,0.55032839 47.1811737,0.546023665 47.1665733,0.572377831 C47.2392595,0.934035416 47.1372897,1.21721685 46.9495682,1.49854473 C45.147189,4.19968914 43.3543556,6.90727545 41.548915,9.60633548 C41.4078079,9.81728605 41.402753,9.95552909 41.5456731,10.1686698 C43.6349226,13.2845016 45.7119788,16.4086063 47.7992726,19.5257695 C48.0216936,19.8579258 48.0609366,20.2021337 47.908674,20.5449458 C47.7424055,20.9193095 47.3939064,21.0007135 47.0095945,20.9999858 C44.5664074,20.9952891 42.1231901,20.9992912 39.6799955,20.9950507 C39.4260567,20.994612 39.1721933,20.9589033 38.9182921,20.9395547 M43.5514047,14.5751897 C43.0891111,13.882314 42.6317746,13.1860187 42.1623352,12.4980719 C41.9426822,12.1761554 41.5221814,12.0807819 41.2506034,12.267629 C40.9316587,12.4870604 40.878372,12.8481733 41.1123697,13.2122291 C41.1902987,13.3334575 41.2703114,13.4533429 41.3503767,13.5731604 C41.9736281,14.5059358 42.593239,15.4412076 43.2225157,16.3698599 C43.4672999,16.7311089 43.83055,16.8204831 44.1149156,16.6148435 C44.4506497,16.3720577 44.5068474,16.0106194 44.2626045,15.6393312 C44.0363171,15.29535 43.8063889,14.9537939 43.5514047,14.5751897 M41.1397954,10.9878163 C40.9013747,10.8030724 40.5169124,10.7625254 40.3169598,10.9120031 C40.1134944,11.064106 39.9990832,11.2644838 40.0600649,11.5280935 C40.1254695,11.8108286 40.2954089,12.0233641 40.5828286,12.0634533 C40.862696,12.1024871 41.0991986,11.972725 41.2467972,11.7185796 C41.3904394,11.4712432 41.3148197,11.2433574 41.1397954,10.9878163 Z" id="Shape" fill="#52FE10"></path>
                <path d="M22.1463525,3.74409356 C22.5723297,4.32926057 23.0228038,4.90197163 23.4188136,5.50635753 C23.8022968,6.09162786 23.5867924,6.59740671 22.8942413,6.83799883 C20.6736113,7.60944775 18.451517,8.37716289 16.229309,9.14457172 C15.7739909,9.30180944 15.4370114,9.23114711 15.1289538,8.85638063 C14.5565699,8.16005473 13.7870935,7.84695912 12.8861764,7.82741925 C11.5857526,7.79920521 10.544365,8.52862276 10.1888365,9.72512311 C9.85411636,10.8515883 10.0175685,11.8964369 10.9324375,12.7600545 C11.2889372,13.0965825 11.7411148,13.2694602 12.2539985,13.3655363 C12.867267,13.5552827 13.4340319,13.4183891 13.9843426,13.2369737 C14.5104382,13.0635425 14.9252319,12.7366074 15.2337046,12.2925142 C15.5461205,11.8427613 15.8182274,11.7400035 16.368315,11.8698647 C18.6742108,12.4142289 20.9803845,12.9576781 23.2820906,13.5174204 C23.4846337,13.5666723 23.6554828,13.7316581 23.8627094,13.8707727 C23.9025994,13.9086203 23.9208273,13.9185894 23.939059,13.9285586 C23.939059,13.9285586 23.9387928,13.9236256 23.9324257,13.9485301 C24.0474986,14.2519775 24.0059365,14.5169871 23.8805497,14.788542 C22.7844079,17.1625045 20.9464271,18.8407464 18.4642784,19.9082229 C17.0715678,20.5071741 15.6066349,20.8345077 14.0774517,20.9525181 C12.9539857,21.0392189 11.8397334,21.0060498 10.7306774,20.8623121 C9.48492969,20.7008536 8.29124596,20.3481396 7.14157561,19.8666638 C7.14157561,18.9329778 7.14157561,17.9992918 7.14157561,17.0073846 C5.83985973,17.0073846 4.56474361,17.0073846 3.26113642,17.0026325 C2.76027801,16.2256013 2.21188989,15.4850117 1.83126912,14.6744794 C1.02413076,12.9556858 0.876142063,11.1300795 1.08560446,9.27585344 C1.37404802,6.72247154 2.52631848,4.57400716 4.54887694,2.85240573 C6.06205618,1.5643823 7.84564691,0.765117834 9.82189741,0.324061163 C11.1185229,0.0346820012 12.4374916,-0.0547601592 13.7560648,0.0312986941 C16.7060698,0.223834423 19.33394,1.17676145 21.508912,3.11761825 C21.601606,3.20033075 21.6849768,3.29232605 21.8019643,3.40137083 C21.8501479,3.43777936 21.8690571,3.45280322 21.8879664,3.46782707 C21.8879664,3.46782707 21.8876258,3.46436633 21.892215,3.47884408 C21.9151535,3.50524286 21.933499,3.51717121 21.9518483,3.52909582 C21.9518483,3.52909582 21.9514332,3.52503366 21.9581683,3.54543688 C22.0022873,3.57492011 22.0396673,3.58400007 22.0770511,3.59308009 C22.0770511,3.59308009 22.0772861,3.58772286 22.0582789,3.60787152 C22.0744119,3.66547653 22.109552,3.7029329 22.1446921,3.74038926 C22.1446921,3.74038926 22.1470221,3.74549556 22.1463525,3.74409356 M7.90094541,11.1471068 C8.00535166,11.5538249 8.07302788,11.9730726 8.22336611,12.3641174 C8.41531718,12.863399 9.05843561,12.9404221 9.3551884,12.5050215 C9.45370532,12.3604795 9.48317936,12.1183451 9.43354303,11.9497657 C9.23345886,11.2702457 9.16833174,10.5911464 9.30592022,9.89696775 C9.42692928,9.28643879 9.68845964,8.73612698 10.0942589,8.24496613 C10.266357,8.03666127 10.3511765,7.80223066 10.2271837,7.5427849 C10.1144761,7.3069486 9.89190754,7.16985584 9.64045631,7.20191804 C9.44283907,7.22711768 9.20621291,7.33312965 9.08428751,7.47667177 C8.18888379,8.53079218 7.8501148,9.75688643 7.90094541,11.1471068 M10.471563,6.48771996 C10.311823,6.86749687 10.426888,7.20453762 10.7690049,7.3589787 C11.0722776,7.49588328 11.453889,7.37593954 11.6244913,7.09009506 C11.7851202,6.8209568 11.6730547,6.44548191 11.3800846,6.27120585 C11.093783,6.100896 10.8020228,6.15958942 10.471563,6.48771996 Z" id="Shape" fill="#52FE10"></path>
                <path d="M39,20.4228023 C39.2194615,20.423952 39.4482299,20.4579763 39.6770661,20.4583945 C41.8787445,20.4624348 44.0804431,20.4586216 46.2821146,20.4630872 C46.6284362,20.46379 46.9424853,20.3862262 47.0923177,20.0295228 C47.2295286,19.7028828 47.194165,19.3749125 46.9937308,19.0584257 C45.1127716,16.0883127 43.241038,13.111586 41.3583165,10.1427418 C41.2295245,9.93965586 41.2340796,9.80793436 41.361238,9.60693527 C42.9882058,7.03520185 44.603813,4.45534437 46.228022,1.88162492 C46.3971868,1.61356852 46.4890765,1.34374601 46.4217996,1 C46.5580751,1.06801607 46.6893547,1.15198103 46.8066774,1.25408267 C47.199893,1.59630406 47.5926203,1.93947342 47.9768542,2.29294729 C48.2926995,2.58350513 48.3198407,3.03900139 48.0528076,3.46488137 C47.2947449,4.67389257 46.53252,5.87994466 45.7730135,7.08793223 C44.9007665,8.47524643 44.0338814,9.86641354 43.1532019,11.2476437 C43.0316223,11.438331 43.0269586,11.5583927 43.1504838,11.7531131 C45.0353203,14.7243289 46.9093247,17.703312 48.7906499,20.6770544 C48.9724093,20.9643577 49.0802014,21.2602606 48.9265593,21.5818476 C48.8518939,21.7381358 48.7004751,21.8529568 48.540197,21.991775 C45.9217072,21.9980033 43.3468238,21.9990016 40.7719401,22 C40.1844047,21.4800307 39.5968762,20.9600577 39,20.4228023 Z" id="Path" fill="#EB259B"></path>
                <path d="M8.00109853,19.1464019 C9.15774136,19.6139465 10.3550553,19.9784693 11.6045917,20.1453334 C12.7170207,20.2938834 13.8346617,20.3281629 14.9615444,20.2385594 C16.4953781,20.1165981 17.9647663,19.7783055 19.3617125,19.1593016 C21.8514099,18.0560862 23.6949804,16.3216575 24.7944559,13.8682154 C24.9202242,13.5875688 24.9619125,13.3136868 24.8438621,13 C25.4778055,13.4870179 26.1189599,13.9878469 26.7338617,14.5174035 C27.0769368,14.8128677 27.0465994,15.1988657 26.8767035,15.5782137 C25.9976024,17.5411565 24.617015,19.0861286 22.739702,20.2042684 C21.1031162,21.1790249 19.3157587,21.727422 17.4086187,21.9157423 C17.1854401,21.9377821 16.9618216,21.9556234 16.6809728,21.973522 C16.4493142,21.9810872 16.2750864,21.9905436 16.1008623,22 C15.8840386,21.9984101 15.6672111,21.9968199 15.3947047,21.9884274 C15.2272756,21.9816934 15.115533,21.9817582 15.0037867,21.9818269 C12.4481749,21.8358661 10.1028354,21.1094172 8.01981004,19.5950221 C7.99922508,19.4493739 7.99842771,19.3129153 8.00109853,19.1464019 Z" id="Path" fill="#EB259B"></path>
                <path d="M25,20.3296017 C27.6237067,20.3089897 30.250648,20.3113131 32.877582,20.3108753 C33.2458875,20.3108123 33.5106004,20.1338091 33.6896823,19.7738582 C34.2531329,18.6412463 34.8291711,17.5159363 35.4004269,16.3878533 C35.4568012,16.2765403 35.5137157,16.1655432 35.5981055,16 C36.0804154,16.9751282 36.5389591,17.9022076 37,18.8497256 C36.5628494,19.7307722 36.1302183,20.5957197 35.6783408,21.4487615 C35.5737626,21.6461715 35.4034278,21.8029057 35.2170153,21.9854592 C32.397258,21.9950412 29.6238503,21.9975226 26.8504353,22 C26.2346992,21.4505525 25.6189633,20.9011051 25,20.3296017 Z" id="Path" fill="#EB259B"></path>
                <path d="M36,3.16253855 C35.9194577,3.43594254 35.8296486,3.70160369 35.7287727,4 C35.4777262,3.31730229 35.2387744,2.66749055 35,2 C35.3303627,2.37314407 35.660552,2.76396987 36,3.16253855 Z" id="Path" fill="#E82898"></path>
                <path d="M42,21.9818951 C44.6457092,21.9525311 47.3094118,21.9508404 50,21.9536358 C49.9552822,21.9879742 49.8836932,22.0437786 49.8120761,22.0439068 C47.2607182,22.048344 44.7093672,22.0477886 42.1580091,22.0459637 C42.111342,22.0459332 42.0646679,22.0222271 42,21.9818951 Z" id="Path" fill="#6D3D39"></path>
                <path d="M28,21.9870031 C30.6455888,21.9560826 33.3093265,21.9522435 36,21.9522802 C35.9459531,21.9867467 35.8649846,22.0439183 35.7839879,22.0440709 C33.2518084,22.0487767 30.7196289,22.0481481 28.1874494,22.0465123 C28.1310181,22.0464757 28.0745799,22.0253637 28,21.9870031 Z" id="Path" fill="#6D3D39"></path>
                <path d="M15.95,22.0283172 C15.9788387,21.9942718 16.0116958,21.9791352 16.05,21.9716828 C16.0216383,22.0019805 15.9878287,22.0246063 15.95,22.0283172 Z" id="Path" fill="#6D3D39"></path>
                <path d="M14.95,22.0040367 C14.9774039,21.9809776 15.0098822,21.9808738 15.05,21.9956749 C15.02345,22.0160545 14.9892627,22.0215172 14.95,22.0040367 Z" id="Path" fill="#6D3D39"></path>
                <path d="M24.95,20.9869413 C24.9716402,20.9694608 25.008716,20.9742765 25.05,21.0123075 C25.0246173,21.0334257 24.9950263,21.0213285 24.95,20.9869413 Z" id="Path" fill="#EB259B"></path>
                <path d="M24.0411133,14.0271741 C24.0204529,14.0346754 23.992041,14.0181837 23.9588867,13.9732313 C23.9805542,13.9642408 24.006958,13.9837171 24.0411133,14.0271741 Z" id="Path" fill="#EB259B"></path>
                <path d="M46.05,1.02592685 C46.0227718,1.04378575 45.9931368,1.02543855 45.95,0.973796752 C45.9735264,0.956914452 46.0105547,0.973320652 46.05,1.02592685 Z" id="Path" fill="#EB259B"></path>
                <path d="M35.033374,1.02112574 C35.0117798,1.04116354 34.986914,1.02749784 34.966626,0.973823542 C34.9882568,0.961708042 35.0078857,0.979579142 35.033374,1.02112574 Z" id="Path" fill="#E82898"></path>
                <path d="M0.9650177,26.0114952 C0.9748932,25.9859581 1.0166473,25.9770714 1.0349823,25.9879967 C1.0205902,26.0116173 0.9878692,26.0243248 0.9650177,26.0114952 Z" id="Path" fill="#BEBEBE"></path>
                <path d="M23.05,4.05 C22.9994401,4.03472357 22.9673362,4.00137161 22.95,3.95 C22.9993292,3.96529618 23.0338944,3.99861197 23.05,4.05 Z" id="Path" fill="#EB259B"></path>
                <path d="M23.05,4.02305011 C23.0228761,4.04131791 22.9903071,4.02629721 22.95,3.97703571 C22.9763596,3.95845051 23.0104572,3.97410601 23.05,4.02305011 Z" id="Path" fill="#EB259B"></path>
                <path d="M23.0490326,4.03448574 C23.0249115,4.04078454 22.9954376,4.01593104 22.9509674,3.96514984 C22.971878,3.96059654 23.0077789,3.98197114 23.0490326,4.03448574 Z" id="Path" fill="#EB259B"></path>
                <path d="M23.0492798,4.02579213 C23.0178589,4.03765743 22.9892639,4.01792473 22.9507202,3.97354603 C22.977887,3.96399403 23.0149964,3.97909413 23.0492798,4.02579213 Z" id="Path" fill="#EB259B"></path>
                <path d="M10.3995967,34.1852685 C10.1956255,34.9028222 9.98567842,35.5952923 9.79986782,36.2922719 C9.75212261,36.4713724 9.65144177,36.567012 9.45638726,36.6278705 C8.90206391,36.8007893 8.32990316,36.8680693 7.74590116,36.8087186 C6.77628936,36.710187 6.21330701,36.2588409 5.97989439,35.4250326 C5.70676157,34.4493378 5.43277392,33.4738213 5.13951317,32.4281804 C5.09030779,32.585117 5.04540533,32.6700241 5.03935997,32.7568159 C4.98967195,33.4705864 4.95139974,34.1849259 4.90115952,34.898669 C4.86470339,35.4165138 4.81843478,35.9339268 4.76766287,36.4509219 C4.76146204,36.5140624 4.71883785,36.606947 4.66152154,36.6293576 C4.00205498,36.8871424 3.33372081,37.087982 2.57907878,36.9413804 C1.69288705,36.769236 1.25819866,36.2704712 1.07879332,35.5678305 C0.913900113,34.9220186 1.03858232,34.2826145 1.17229992,33.6490359 C1.57852853,31.7242445 2.01471803,29.8038256 2.40768211,27.8771907 C2.47922419,27.5264393 2.66090782,27.3366816 3.03574804,27.2069668 C4.3365084,26.7568133 6.46909322,26.9493123 7.02580522,28.7080589 C7.15614015,29.1197853 7.26806499,29.5356579 7.38511898,29.9502834 C7.59225192,30.6840042 7.79682853,31.4182322 8.06704087,32.1631585 C8.10362387,32.0628723 8.14734427,31.9639705 8.17570174,31.8620807 C8.50051859,30.6950588 8.82060305,29.5271186 9.14685561,28.3603778 C9.40096886,27.4516341 9.7386494,27.2088994 10.863841,27.1110052 C12.5799758,26.9616964 13.9203294,27.9160085 14.083468,29.3708057 C14.1873024,30.2967789 14.3465879,31.2183385 14.4761252,32.1423583 C14.6384744,33.3004159 14.7459817,34.4659711 14.9759382,35.6144064 C15.0943256,36.2056515 14.7632015,36.4787124 14.2605747,36.7245107 C13.2175882,37.23457 11.8545379,37.0197698 11.3437673,36.2175216 C11.1383399,35.8948623 11.0377613,35.4952185 11.017936,35.1257846 C10.9716429,34.2630068 11.0031582,33.3973029 11.0031582,32.5327842 C10.9554784,32.5298441 10.9077946,32.5269041 10.8601148,32.523964 C10.7076109,33.0699283 10.5551069,33.6158927 10.3995967,34.1852685 Z" id="Path" fill="#FFFEFF"></path>
                <path d="M43.0969625,27.1721643 C44.5553636,26.9445117 45.9829997,26.8904281 47.3868025,27.3368017 C48.921738,27.8248847 49.9803768,29.2733159 49.9061811,30.8177404 C49.865684,31.6608632 49.467035,32.3525183 48.7964307,32.8998591 C48.673791,32.9999572 48.5417272,33.0895328 48.4012335,33.1934081 C48.6294151,33.4821504 48.8727409,33.7584983 49.0787484,34.0582177 C49.3819938,34.4993969 49.6740647,34.9492803 49.936743,35.4130889 C50.0110438,35.5442735 50.0178982,35.7531205 49.967753,35.8987451 C49.6487961,36.8250991 48.5607575,37.2449256 47.543946,36.8541129 C46.963522,36.6310264 46.5348013,36.2430752 46.2041728,35.744804 C45.8417149,35.1985596 45.4764285,34.6540332 45.1114641,34.1093131 C45.0409582,34.004094 44.9662794,33.9014353 44.8241472,33.8080159 C44.8197923,33.8903179 44.8171387,33.9727469 44.8108232,34.0549152 C44.7570651,34.7547464 44.712052,35.4554267 44.6396206,36.1534996 C44.6268427,36.2766752 44.5278825,36.4321605 44.4190428,36.4991667 C43.7492158,36.9115459 43.0689701,36.9191203 42.3050767,36.4590887 C41.5711852,36.017114 41.2314475,35.3224171 41.1526097,34.5345813 C40.9427373,32.437334 40.9596532,30.3364765 41.1402589,28.2366888 C41.1650026,27.9490563 41.2777069,27.7273937 41.5800702,27.6326037 C42.0765032,27.4769645 42.5748688,27.3269611 43.0969625,27.1721643 M45.0111874,30.2920599 C45.004375,30.3113869 44.9975624,30.3307205 44.9827191,30.4000933 C44.9814377,30.5619096 44.9791693,30.7237327 44.9790599,30.8855489 C44.9788402,31.3089587 44.9792182,31.3089587 45.4933792,31.2747236 C45.5880967,31.2727715 45.6844945,31.2809609 45.7771953,31.2669019 C46.0271728,31.2289965 46.2403918,31.1284437 46.2798317,30.8631065 C46.3168771,30.6138405 46.236366,30.4012365 45.9550565,30.2476029 C45.6460418,30.1259516 45.3423552,30.1331784 45.0111874,30.2920599 Z" id="Shape" fill="#FFFEFF"></path>
                <path d="M26.9667422,29.3098483 C27.3645737,28.6240578 27.7479973,27.9540662 28.1536008,27.2962464 C28.2220215,27.185279 28.3744213,27.0824671 28.5078326,27.0512383 C29.4896027,26.821346 30.5998201,27.3903563 30.8988883,28.2516073 C31.0584956,28.7112143 30.9945254,29.1579051 30.7802466,29.574371 C30.4280121,30.2589798 30.05697,30.936362 29.6586319,31.5978908 C29.4517923,31.9413666 29.4486517,32.2312849 29.6383554,32.5825132 C30.062694,33.368117 30.4271799,34.1826273 30.8547098,34.9665714 C31.1367145,35.483677 30.9804215,35.9003138 30.6241707,36.289458 C29.6667875,37.3352198 28.1527251,37.2138906 27.3992653,36.0096283 C27.0961662,35.5251857 26.8891312,34.9871719 26.6387498,34.4733789 C26.6026906,34.3993847 26.568737,34.3244751 26.5162727,34.2125857 C26.2029993,34.8698454 25.9051431,35.494681 25.6074389,36.119578 C25.5872962,36.1618653 25.5593779,36.2029914 25.550166,36.247437 C25.4566491,36.6986222 25.1163403,36.86521 24.6842117,36.8571911 C24.2758764,36.8496023 23.8497033,36.8378608 23.4650278,36.7253907 C22.5286556,36.4516265 22.0246688,35.4503103 22.393815,34.5218273 C22.6581267,33.8570199 23.0257387,33.2225876 23.4071253,32.6076699 C23.6575899,32.203847 23.6866697,31.8734855 23.4566336,31.4484952 C22.9737519,30.5563774 22.566021,29.6282565 22.0958648,28.729636 C21.945911,28.4430237 21.9779359,28.2117448 22.1496714,27.9765179 C22.564031,27.4089693 23.1592477,27.1362774 23.871742,27.0713266 C23.9987817,27.0597422 24.1284409,27.0768183 24.2566275,27.072884 C24.8849619,27.0536085 25.3457613,27.3104606 25.6132063,27.8418078 C25.9167576,28.4448747 26.1950103,29.0592871 26.4841755,29.6688019 C26.5227205,29.7500433 26.5607625,29.8314896 26.6185673,29.9543351 C26.7469999,29.7192379 26.8533904,29.5244815 26.9667422,29.3098483 Z" id="Path" fill="#FFFEFF"></path>
                <path d="M35.7485543,33.3429102 C35.7485543,33.520754 35.7485543,33.698605 35.7485543,33.9035659 C35.8778662,33.9035659 35.9855892,33.9035729 36.0933123,33.9035729 C37.0956182,33.9035799 38.0979828,33.9090409 39.1001786,33.8989827 C39.30086,33.8969696 39.4037792,33.9635531 39.4945854,34.1274452 C40.2230696,35.4423011 39.432618,36.8001903 37.7974528,36.9200182 C36.6012599,37.0076726 35.3938505,37.0149585 34.1937939,36.9816494 C33.0098169,36.948786 32.3978189,36.4667919 32.1574198,35.4844009 C32.06773,35.1178745 32.0190583,34.7344914 32.0154369,34.3582411 C32.0001875,32.7712208 31.9894848,31.183678 32.0169795,29.5969573 C32.0313695,28.766178 32.1282652,27.9366805 32.1908055,27.0661837 C32.8169363,27.0422919 33.4245783,26.9957134 34.0317869,27.0003177 C35.8445686,27.0140816 37.6572474,27.0452313 39.4697352,27.0800312 C39.5883224,27.0823019 39.7744451,27.1441769 39.811812,27.2263283 C40.1691163,28.0118037 40.0440871,29.2142082 39.20774,29.7422793 C38.8388298,29.9752136 38.4266246,30.0786101 37.9906344,30.0839457 C37.2508673,30.0930008 36.5108871,30.0864393 35.7361329,30.0864393 C35.7361329,30.2365954 35.7361329,30.3659662 35.739343,30.5377085 C35.7631646,30.585875 35.7837691,30.5916704 35.8043808,30.5974726 C36.7120755,30.6178678 37.6197408,30.6394122 38.5274795,30.6580798 C38.8667944,30.6650523 39.0260248,30.8368085 39.1149505,31.1400042 C39.3707166,32.0119776 39.1683089,32.7103142 38.4819075,33.0536454 C38.2254509,33.1819088 37.9174797,33.2596301 37.6275051,33.2767583 C37.0394171,33.3114886 36.4475902,33.289185 35.8135849,33.2910657 C35.7627681,33.3088068 35.7556649,33.3258585 35.7485543,33.3429102 Z" id="Path" fill="#FFFEFF"></path>
                <path d="M16.1745822,27.8187395 C16.1817445,27.499271 16.4437479,27.3597535 16.7578211,27.2429177 C18.5223645,26.5864813 20.5053809,27.3113041 20.7731472,28.8051388 C20.9736755,29.9238795 20.9510439,31.0665241 20.9920943,32.199248 C21.0150084,32.8314325 20.9849138,33.4658292 20.9428239,34.0978976 C20.8931066,34.8446238 20.8178173,35.5908584 20.7207855,36.334908 C20.7034655,36.4677411 20.5659488,36.6328966 20.4165739,36.7079946 C19.6979289,37.0692419 18.9116768,37.0771551 18.1393939,36.8313849 C16.9048573,36.4385116 16.3266743,35.6644406 16.1810834,34.7156346 C15.8985822,32.8746246 16.0309106,31.0234685 16.0312663,29.1762726 C16.0313482,28.731775 16.1231143,28.2872844 16.1745822,27.8187395 Z" id="Path" fill="#FFFEFF"></path>
                <path d="M34.9762525,34.0379639 C34.9701246,34.0180054 34.9819288,33.9881226 35.0199048,33.9620361 C35.0349805,33.9917358 35.0176832,34.0124756 34.9762525,34.0379639 Z" id="Path" fill="#F032C8"></path>
                <path d="M35.0448059,30.0225017 C35.0274231,30.0287761 34.9931823,30.0186198 34.9551941,29.9798747 C34.9787658,29.9670207 35.0042541,29.9852824 35.0448059,30.0225017 Z" id="Path" fill="#F687DF"></path>
                <path d="M42.7689174,15.6594715 C43.1196476,16.0556998 43.4533576,16.430985 43.7817837,16.8089342 C44.1362696,17.2168873 44.0547063,17.6140178 43.5674328,17.8807788 C43.1547141,18.1067253 42.6275052,18.0085255 42.2722333,17.611603 C41.3589219,16.591246 40.4596395,15.5636157 39.555073,14.5387285 C39.4388689,14.407079 39.3227413,14.2753548 39.2096378,14.1421551 C38.8700213,13.7421486 38.9473597,13.3453757 39.4102654,13.1042754 C39.8044248,12.8989771 40.4147256,13.0037688 40.7335226,13.3574746 C41.4148515,14.1133564 42.0786143,14.878411 42.7689174,15.6594715 Z" id="Path" fill="#FDFFFC"></path>
                <path d="M40.8686467,11.1479077 C40.9935826,11.3374907 41.0526905,11.520064 40.9404133,11.7182204 C40.8250434,11.9218319 40.6401822,12.0257923 40.4214251,11.9945199 C40.1967648,11.962402 40.0639324,11.7921267 40.0128091,11.5656103 C39.965143,11.3544163 40.0545721,11.1938813 40.2136099,11.0720224 C40.369902,10.9522666 40.6704153,10.9847512 40.8686467,11.1479077 Z" id="Path" fill="#FCFFFB"></path>
                <path d="M8.00395985,11.2075635 C7.96234818,9.74608244 8.24572306,8.43065362 8.99471405,7.29972885 C9.09670266,7.14572808 9.29463679,7.03199199 9.45994039,7.00495626 C9.67027533,6.97055797 9.85645039,7.11763946 9.95072852,7.37065905 C10.0544467,7.6490083 9.98349639,7.90051978 9.83953906,8.12400197 C9.50009453,8.65094933 9.28132839,9.24135745 9.18010626,9.89637023 C9.06501571,10.6411274 9.11949346,11.3697067 9.28686066,12.0987372 C9.32838066,12.2795996 9.30372613,12.5393761 9.22131839,12.6944496 C8.97308934,13.161574 8.435131,13.0789388 8.27456697,12.5432791 C8.14881144,12.1237423 8.09220134,11.6739478 8.00395985,11.2075635 Z" id="Path" fill="#FDFFFC"></path>
                <path d="M10.0620476,7.23480859 C10.3068277,6.98573729 10.5325495,6.93833942 10.7540482,7.07587315 C10.9807061,7.21660979 11.0674061,7.51982456 10.9431348,7.73716719 C10.8111474,7.96800092 10.5159118,8.06486149 10.2812833,7.95430419 C10.0166027,7.82958529 9.92758206,7.557408 10.0620476,7.23480859 Z" id="Path" fill="#FCFFFB"></path>
            </g>
        </g>
    </g>
</svg>